ISO-10303-21;
HEADER;
FILE_DESCRIPTION(('FreeCAD Model'),'2;1');
FILE_NAME('Open CASCADE Shape Model','2025-12-27T19:53:37',(''),(''),
  'Open CASCADE STEP processor 7.8','FreeCAD','Unknown');
FILE_SCHEMA(('AUTOMOTIVE_DESIGN { 1 0 10303 214 1 1 1 1 }'));
ENDSEC;
DATA;
#1 = APPLICATION_PROTOCOL_DEFINITION('international standard',
  'automotive_design',2000,#2);
#2 = APPLICATION_CONTEXT(
  'core data for automotive mechanical design processes');
#3 = SHAPE_DEFINITION_REPRESENTATION(#4,#10);
#4 = PRODUCT_DEFINITION_SHAPE('','',#5);
#5 = PRODUCT_DEFINITION('design','',#6,#9);
#6 = PRODUCT_DEFINITION_FORMATION('','',#7);
#7 = PRODUCT('Unnamed','Unnamed','',(#8));
#8 = PRODUCT_CONTEXT('',#2,'mechanical');
#9 = PRODUCT_DEFINITION_CONTEXT('part definition',#2,'design');
#10 = SHAPE_REPRESENTATION('',(#11,#15,#19),#23);
#11 = AXIS2_PLACEMENT_3D('',#12,#13,#14);
#12 = CARTESIAN_POINT('',(0.,0.,0.));
#13 = DIRECTION('',(0.,0.,1.));
#14 = DIRECTION('',(1.,0.,-0.));
#15 = AXIS2_PLACEMENT_3D('',#16,#17,#18);
#16 = CARTESIAN_POINT('',(0.,0.,0.));
#17 = DIRECTION('',(0.,0.,1.));
#18 = DIRECTION('',(1.,0.,0.));
#19 = AXIS2_PLACEMENT_3D('',#20,#21,#22);
#20 = CARTESIAN_POINT('',(0.,0.,0.));
#21 = DIRECTION('',(0.,0.,1.));
#22 = DIRECTION('',(1.,0.,0.));
#23 = ( GEOMETRIC_REPRESENTATION_CONTEXT(3) 
GLOBAL_UNCERTAINTY_ASSIGNED_CONTEXT((#27)) GLOBAL_UNIT_ASSIGNED_CONTEXT(
(#24,#25,#26)) REPRESENTATION_CONTEXT('Context #1',
  '3D Context with UNIT and UNCERTAINTY') );
#24 = ( LENGTH_UNIT() NAMED_UNIT(*) SI_UNIT(.MILLI.,.METRE.) );
#25 = ( NAMED_UNIT(*) PLANE_ANGLE_UNIT() SI_UNIT($,.RADIAN.) );
#26 = ( NAMED_UNIT(*) SI_UNIT($,.STERADIAN.) SOLID_ANGLE_UNIT() );
#27 = UNCERTAINTY_MEASURE_WITH_UNIT(LENGTH_MEASURE(1.E-06),#24,
  'distance_accuracy_value','confusion accuracy');
#28 = PRODUCT_RELATED_PRODUCT_CATEGORY('part',$,(#7));
#29 = SHAPE_DEFINITION_REPRESENTATION(#30,#36);
#30 = PRODUCT_DEFINITION_SHAPE('','',#31);
#31 = PRODUCT_DEFINITION('design','',#32,#35);
#32 = PRODUCT_DEFINITION_FORMATION('','',#33);
#33 = PRODUCT('Body','Body','',(#34));
#34 = PRODUCT_CONTEXT('',#2,'mechanical');
#35 = PRODUCT_DEFINITION_CONTEXT('part definition',#2,'design');
#36 = ADVANCED_BREP_SHAPE_REPRESENTATION('',(#11,#37),#571);
#37 = MANIFOLD_SOLID_BREP('',#38);
#38 = CLOSED_SHELL('',(#39,#67,#93,#118,#143,#186,#229,#292,#316,#340,
    #389,#420,#444,#468,#485,#507,#530,#547,#559));
#39 = ADVANCED_FACE('',(#40,#51),#62,.F.);
#40 = FACE_BOUND('',#41,.F.);
#41 = EDGE_LOOP('',(#42));
#42 = ORIENTED_EDGE('',*,*,#43,.T.);
#43 = EDGE_CURVE('',#44,#44,#46,.T.);
#44 = VERTEX_POINT('',#45);
#45 = CARTESIAN_POINT('',(2.75,-14.4,8.));
#46 = CIRCLE('',#47,2.75);
#47 = AXIS2_PLACEMENT_3D('',#48,#49,#50);
#48 = CARTESIAN_POINT('',(0.,-14.4,8.));
#49 = DIRECTION('',(0.,-1.,2.930228855442E-16));
#50 = DIRECTION('',(1.,-3.219840429474E-32,-1.098835820791E-16));
#51 = FACE_BOUND('',#52,.F.);
#52 = EDGE_LOOP('',(#53));
#53 = ORIENTED_EDGE('',*,*,#54,.F.);
#54 = EDGE_CURVE('',#55,#55,#57,.T.);
#55 = VERTEX_POINT('',#56);
#56 = CARTESIAN_POINT('',(3.5,-14.4,8.));
#57 = CIRCLE('',#58,3.5);
#58 = AXIS2_PLACEMENT_3D('',#59,#60,#61);
#59 = CARTESIAN_POINT('',(0.,-14.4,8.));
#60 = DIRECTION('',(0.,-1.,2.22044604925E-16));
#61 = DIRECTION('',(1.,0.,0.));
#62 = PLANE('',#63);
#63 = AXIS2_PLACEMENT_3D('',#64,#65,#66);
#64 = CARTESIAN_POINT('',(-3.906971807255E-16,-14.4,8.));
#65 = DIRECTION('',(0.,1.,-2.930228855442E-16));
#66 = DIRECTION('',(0.,2.930228855442E-16,1.));
#67 = ADVANCED_FACE('',(#68),#88,.T.);
#68 = FACE_BOUND('',#69,.T.);
#69 = EDGE_LOOP('',(#70,#79,#80,#81));
#70 = ORIENTED_EDGE('',*,*,#71,.F.);
#71 = EDGE_CURVE('',#44,#72,#74,.T.);
#72 = VERTEX_POINT('',#73);
#73 = CARTESIAN_POINT('',(2.,-13.65,8.));
#74 = CIRCLE('',#75,0.75);
#75 = AXIS2_PLACEMENT_3D('',#76,#77,#78);
#76 = CARTESIAN_POINT('',(2.75,-13.65,8.));
#77 = DIRECTION('',(-1.098835820791E-16,-2.930228855442E-16,-1.));
#78 = DIRECTION('',(1.,-3.219840429474E-32,-1.098835820791E-16));
#79 = ORIENTED_EDGE('',*,*,#43,.T.);
#80 = ORIENTED_EDGE('',*,*,#71,.T.);
#81 = ORIENTED_EDGE('',*,*,#82,.F.);
#82 = EDGE_CURVE('',#72,#72,#83,.T.);
#83 = CIRCLE('',#84,2.);
#84 = AXIS2_PLACEMENT_3D('',#85,#86,#87);
#85 = CARTESIAN_POINT('',(0.,-13.65,8.));
#86 = DIRECTION('',(0.,-1.,2.930228855442E-16));
#87 = DIRECTION('',(1.,-3.219840429474E-32,-1.098835820791E-16));
#88 = TOROIDAL_SURFACE('',#89,2.75,0.75);
#89 = AXIS2_PLACEMENT_3D('',#90,#91,#92);
#90 = CARTESIAN_POINT('',(0.,-13.65,8.));
#91 = DIRECTION('',(0.,-1.,2.930228855442E-16));
#92 = DIRECTION('',(1.,-3.219840429474E-32,-1.098835820791E-16));
#93 = ADVANCED_FACE('',(#94),#113,.T.);
#94 = FACE_BOUND('',#95,.F.);
#95 = EDGE_LOOP('',(#96,#104,#105,#106));
#96 = ORIENTED_EDGE('',*,*,#97,.T.);
#97 = EDGE_CURVE('',#98,#55,#100,.T.);
#98 = VERTEX_POINT('',#99);
#99 = CARTESIAN_POINT('',(3.5,-5.,8.));
#100 = LINE('',#101,#102);
#101 = CARTESIAN_POINT('',(3.5,-5.,8.));
#102 = VECTOR('',#103,1.);
#103 = DIRECTION('',(0.,-1.,2.22044604925E-16));
#104 = ORIENTED_EDGE('',*,*,#54,.T.);
#105 = ORIENTED_EDGE('',*,*,#97,.F.);
#106 = ORIENTED_EDGE('',*,*,#107,.F.);
#107 = EDGE_CURVE('',#98,#98,#108,.T.);
#108 = CIRCLE('',#109,3.5);
#109 = AXIS2_PLACEMENT_3D('',#110,#111,#112);
#110 = CARTESIAN_POINT('',(0.,-5.,8.));
#111 = DIRECTION('',(0.,-1.,2.22044604925E-16));
#112 = DIRECTION('',(1.,0.,0.));
#113 = CYLINDRICAL_SURFACE('',#114,3.5);
#114 = AXIS2_PLACEMENT_3D('',#115,#116,#117);
#115 = CARTESIAN_POINT('',(0.,-5.,8.));
#116 = DIRECTION('',(0.,1.,-2.22044604925E-16));
#117 = DIRECTION('',(1.,0.,0.));
#118 = ADVANCED_FACE('',(#119),#138,.F.);
#119 = FACE_BOUND('',#120,.F.);
#120 = EDGE_LOOP('',(#121,#129,#130,#131));
#121 = ORIENTED_EDGE('',*,*,#122,.F.);
#122 = EDGE_CURVE('',#72,#123,#125,.T.);
#123 = VERTEX_POINT('',#124);
#124 = CARTESIAN_POINT('',(2.,-4.1,8.));
#125 = LINE('',#126,#127);
#126 = CARTESIAN_POINT('',(2.,-14.4,8.));
#127 = VECTOR('',#128,1.);
#128 = DIRECTION('',(0.,1.,-2.22044604925E-16));
#129 = ORIENTED_EDGE('',*,*,#82,.F.);
#130 = ORIENTED_EDGE('',*,*,#122,.T.);
#131 = ORIENTED_EDGE('',*,*,#132,.T.);
#132 = EDGE_CURVE('',#123,#123,#133,.T.);
#133 = CIRCLE('',#134,2.);
#134 = AXIS2_PLACEMENT_3D('',#135,#136,#137);
#135 = CARTESIAN_POINT('',(0.,-4.1,8.));
#136 = DIRECTION('',(0.,-1.,2.22044604925E-16));
#137 = DIRECTION('',(1.,0.,0.));
#138 = CYLINDRICAL_SURFACE('',#139,2.);
#139 = AXIS2_PLACEMENT_3D('',#140,#141,#142);
#140 = CARTESIAN_POINT('',(0.,-14.4,8.));
#141 = DIRECTION('',(0.,-1.,2.22044604925E-16));
#142 = DIRECTION('',(1.,0.,0.));
#143 = ADVANCED_FACE('',(#144,#178),#181,.F.);
#144 = FACE_BOUND('',#145,.F.);
#145 = EDGE_LOOP('',(#146,#156,#164,#172));
#146 = ORIENTED_EDGE('',*,*,#147,.T.);
#147 = EDGE_CURVE('',#148,#150,#152,.T.);
#148 = VERTEX_POINT('',#149);
#149 = CARTESIAN_POINT('',(-5.,-5.,0.));
#150 = VERTEX_POINT('',#151);
#151 = CARTESIAN_POINT('',(-5.,-5.,13.));
#152 = LINE('',#153,#154);
#153 = CARTESIAN_POINT('',(-5.,-5.,0.));
#154 = VECTOR('',#155,1.);
#155 = DIRECTION('',(0.,0.,1.));
#156 = ORIENTED_EDGE('',*,*,#157,.T.);
#157 = EDGE_CURVE('',#150,#158,#160,.T.);
#158 = VERTEX_POINT('',#159);
#159 = CARTESIAN_POINT('',(5.,-5.,13.));
#160 = LINE('',#161,#162);
#161 = CARTESIAN_POINT('',(-5.,-5.,13.));
#162 = VECTOR('',#163,1.);
#163 = DIRECTION('',(1.,0.,0.));
#164 = ORIENTED_EDGE('',*,*,#165,.F.);
#165 = EDGE_CURVE('',#166,#158,#168,.T.);
#166 = VERTEX_POINT('',#167);
#167 = CARTESIAN_POINT('',(5.,-5.,0.));
#168 = LINE('',#169,#170);
#169 = CARTESIAN_POINT('',(5.,-5.,0.));
#170 = VECTOR('',#171,1.);
#171 = DIRECTION('',(0.,0.,1.));
#172 = ORIENTED_EDGE('',*,*,#173,.F.);
#173 = EDGE_CURVE('',#148,#166,#174,.T.);
#174 = LINE('',#175,#176);
#175 = CARTESIAN_POINT('',(-5.,-5.,0.));
#176 = VECTOR('',#177,1.);
#177 = DIRECTION('',(1.,0.,0.));
#178 = FACE_BOUND('',#179,.F.);
#179 = EDGE_LOOP('',(#180));
#180 = ORIENTED_EDGE('',*,*,#107,.T.);
#181 = PLANE('',#182);
#182 = AXIS2_PLACEMENT_3D('',#183,#184,#185);
#183 = CARTESIAN_POINT('',(-5.,-5.,0.));
#184 = DIRECTION('',(0.,1.,0.));
#185 = DIRECTION('',(1.,0.,0.));
#186 = ADVANCED_FACE('',(#187,#221),#224,.T.);
#187 = FACE_BOUND('',#188,.T.);
#188 = EDGE_LOOP('',(#189,#199,#207,#215));
#189 = ORIENTED_EDGE('',*,*,#190,.T.);
#190 = EDGE_CURVE('',#191,#193,#195,.T.);
#191 = VERTEX_POINT('',#192);
#192 = CARTESIAN_POINT('',(4.,-4.1,5.5));
#193 = VERTEX_POINT('',#194);
#194 = CARTESIAN_POINT('',(-4.,-4.1,5.5));
#195 = LINE('',#196,#197);
#196 = CARTESIAN_POINT('',(4.,-4.1,5.5));
#197 = VECTOR('',#198,1.);
#198 = DIRECTION('',(-1.,0.,0.));
#199 = ORIENTED_EDGE('',*,*,#200,.T.);
#200 = EDGE_CURVE('',#193,#201,#203,.T.);
#201 = VERTEX_POINT('',#202);
#202 = CARTESIAN_POINT('',(-4.,-4.1,10.3));
#203 = LINE('',#204,#205);
#204 = CARTESIAN_POINT('',(-4.,-4.1,5.5));
#205 = VECTOR('',#206,1.);
#206 = DIRECTION('',(0.,2.22044604925E-16,1.));
#207 = ORIENTED_EDGE('',*,*,#208,.T.);
#208 = EDGE_CURVE('',#201,#209,#211,.T.);
#209 = VERTEX_POINT('',#210);
#210 = CARTESIAN_POINT('',(4.,-4.1,10.3));
#211 = LINE('',#212,#213);
#212 = CARTESIAN_POINT('',(-4.,-4.1,10.3));
#213 = VECTOR('',#214,1.);
#214 = DIRECTION('',(1.,0.,0.));
#215 = ORIENTED_EDGE('',*,*,#216,.T.);
#216 = EDGE_CURVE('',#209,#191,#217,.T.);
#217 = LINE('',#218,#219);
#218 = CARTESIAN_POINT('',(4.,-4.1,10.3));
#219 = VECTOR('',#220,1.);
#220 = DIRECTION('',(0.,-2.22044604925E-16,-1.));
#221 = FACE_BOUND('',#222,.T.);
#222 = EDGE_LOOP('',(#223));
#223 = ORIENTED_EDGE('',*,*,#132,.T.);
#224 = PLANE('',#225);
#225 = AXIS2_PLACEMENT_3D('',#226,#227,#228);
#226 = CARTESIAN_POINT('',(0.,-4.1,7.9));
#227 = DIRECTION('',(0.,1.,0.));
#228 = DIRECTION('',(0.,0.,1.));
#229 = ADVANCED_FACE('',(#230),#287,.F.);
#230 = FACE_BOUND('',#231,.F.);
#231 = EDGE_LOOP('',(#232,#242,#250,#256,#257,#265,#273,#281));
#232 = ORIENTED_EDGE('',*,*,#233,.T.);
#233 = EDGE_CURVE('',#234,#236,#238,.T.);
#234 = VERTEX_POINT('',#235);
#235 = CARTESIAN_POINT('',(-5.,3.9,11.2));
#236 = VERTEX_POINT('',#237);
#237 = CARTESIAN_POINT('',(-5.,5.,11.2));
#238 = LINE('',#239,#240);
#239 = CARTESIAN_POINT('',(-5.,4.45,11.2));
#240 = VECTOR('',#241,1.);
#241 = DIRECTION('',(0.,1.,0.));
#242 = ORIENTED_EDGE('',*,*,#243,.T.);
#243 = EDGE_CURVE('',#236,#244,#246,.T.);
#244 = VERTEX_POINT('',#245);
#245 = CARTESIAN_POINT('',(-5.,5.,13.));
#246 = LINE('',#247,#248);
#247 = CARTESIAN_POINT('',(-5.,5.,0.));
#248 = VECTOR('',#249,1.);
#249 = DIRECTION('',(0.,0.,1.));
#250 = ORIENTED_EDGE('',*,*,#251,.T.);
#251 = EDGE_CURVE('',#244,#150,#252,.T.);
#252 = LINE('',#253,#254);
#253 = CARTESIAN_POINT('',(-5.,5.,13.));
#254 = VECTOR('',#255,1.);
#255 = DIRECTION('',(0.,-1.,0.));
#256 = ORIENTED_EDGE('',*,*,#147,.F.);
#257 = ORIENTED_EDGE('',*,*,#258,.F.);
#258 = EDGE_CURVE('',#259,#148,#261,.T.);
#259 = VERTEX_POINT('',#260);
#260 = CARTESIAN_POINT('',(-5.,-4.1,0.));
#261 = LINE('',#262,#263);
#262 = CARTESIAN_POINT('',(-5.,5.,0.));
#263 = VECTOR('',#264,1.);
#264 = DIRECTION('',(0.,-1.,0.));
#265 = ORIENTED_EDGE('',*,*,#266,.T.);
#266 = EDGE_CURVE('',#259,#267,#269,.T.);
#267 = VERTEX_POINT('',#268);
#268 = CARTESIAN_POINT('',(-5.,-4.1,1.5));
#269 = LINE('',#270,#271);
#270 = CARTESIAN_POINT('',(-5.,-4.1,0.));
#271 = VECTOR('',#272,1.);
#272 = DIRECTION('',(0.,0.,1.));
#273 = ORIENTED_EDGE('',*,*,#274,.T.);
#274 = EDGE_CURVE('',#267,#275,#277,.T.);
#275 = VERTEX_POINT('',#276);
#276 = CARTESIAN_POINT('',(-5.,3.9,1.5));
#277 = LINE('',#278,#279);
#278 = CARTESIAN_POINT('',(-5.,0.45,1.5));
#279 = VECTOR('',#280,1.);
#280 = DIRECTION('',(0.,1.,0.));
#281 = ORIENTED_EDGE('',*,*,#282,.T.);
#282 = EDGE_CURVE('',#275,#234,#283,.T.);
#283 = LINE('',#284,#285);
#284 = CARTESIAN_POINT('',(-5.,3.9,0.75));
#285 = VECTOR('',#286,1.);
#286 = DIRECTION('',(0.,0.,1.));
#287 = PLANE('',#288);
#288 = AXIS2_PLACEMENT_3D('',#289,#290,#291);
#289 = CARTESIAN_POINT('',(-5.,5.,0.));
#290 = DIRECTION('',(1.,0.,0.));
#291 = DIRECTION('',(0.,-1.,0.));
#292 = ADVANCED_FACE('',(#293),#311,.F.);
#293 = FACE_BOUND('',#294,.F.);
#294 = EDGE_LOOP('',(#295,#296,#297,#305));
#295 = ORIENTED_EDGE('',*,*,#258,.T.);
#296 = ORIENTED_EDGE('',*,*,#173,.T.);
#297 = ORIENTED_EDGE('',*,*,#298,.T.);
#298 = EDGE_CURVE('',#166,#299,#301,.T.);
#299 = VERTEX_POINT('',#300);
#300 = CARTESIAN_POINT('',(5.,-4.1,0.));
#301 = LINE('',#302,#303);
#302 = CARTESIAN_POINT('',(5.,-5.,0.));
#303 = VECTOR('',#304,1.);
#304 = DIRECTION('',(0.,1.,0.));
#305 = ORIENTED_EDGE('',*,*,#306,.T.);
#306 = EDGE_CURVE('',#299,#259,#307,.T.);
#307 = LINE('',#308,#309);
#308 = CARTESIAN_POINT('',(5.,-4.1,0.));
#309 = VECTOR('',#310,1.);
#310 = DIRECTION('',(-1.,-0.,-0.));
#311 = PLANE('',#312);
#312 = AXIS2_PLACEMENT_3D('',#313,#314,#315);
#313 = CARTESIAN_POINT('',(0.,0.,0.));
#314 = DIRECTION('',(0.,0.,1.));
#315 = DIRECTION('',(1.,0.,0.));
#316 = ADVANCED_FACE('',(#317),#335,.T.);
#317 = FACE_BOUND('',#318,.T.);
#318 = EDGE_LOOP('',(#319,#320,#328,#334));
#319 = ORIENTED_EDGE('',*,*,#157,.T.);
#320 = ORIENTED_EDGE('',*,*,#321,.T.);
#321 = EDGE_CURVE('',#158,#322,#324,.T.);
#322 = VERTEX_POINT('',#323);
#323 = CARTESIAN_POINT('',(5.,5.,13.));
#324 = LINE('',#325,#326);
#325 = CARTESIAN_POINT('',(5.,-5.,13.));
#326 = VECTOR('',#327,1.);
#327 = DIRECTION('',(0.,1.,0.));
#328 = ORIENTED_EDGE('',*,*,#329,.T.);
#329 = EDGE_CURVE('',#322,#244,#330,.T.);
#330 = LINE('',#331,#332);
#331 = CARTESIAN_POINT('',(5.,5.,13.));
#332 = VECTOR('',#333,1.);
#333 = DIRECTION('',(-1.,0.,0.));
#334 = ORIENTED_EDGE('',*,*,#251,.T.);
#335 = PLANE('',#336);
#336 = AXIS2_PLACEMENT_3D('',#337,#338,#339);
#337 = CARTESIAN_POINT('',(0.,0.,13.));
#338 = DIRECTION('',(0.,0.,1.));
#339 = DIRECTION('',(1.,0.,0.));
#340 = ADVANCED_FACE('',(#341),#384,.F.);
#341 = FACE_BOUND('',#342,.F.);
#342 = EDGE_LOOP('',(#343,#344,#345,#346,#354,#362,#370,#378));
#343 = ORIENTED_EDGE('',*,*,#298,.F.);
#344 = ORIENTED_EDGE('',*,*,#165,.T.);
#345 = ORIENTED_EDGE('',*,*,#321,.T.);
#346 = ORIENTED_EDGE('',*,*,#347,.F.);
#347 = EDGE_CURVE('',#348,#322,#350,.T.);
#348 = VERTEX_POINT('',#349);
#349 = CARTESIAN_POINT('',(5.,5.,11.2));
#350 = LINE('',#351,#352);
#351 = CARTESIAN_POINT('',(5.,5.,0.));
#352 = VECTOR('',#353,1.);
#353 = DIRECTION('',(0.,0.,1.));
#354 = ORIENTED_EDGE('',*,*,#355,.F.);
#355 = EDGE_CURVE('',#356,#348,#358,.T.);
#356 = VERTEX_POINT('',#357);
#357 = CARTESIAN_POINT('',(5.,3.9,11.2));
#358 = LINE('',#359,#360);
#359 = CARTESIAN_POINT('',(5.,3.9,11.2));
#360 = VECTOR('',#361,1.);
#361 = DIRECTION('',(0.,1.,0.));
#362 = ORIENTED_EDGE('',*,*,#363,.F.);
#363 = EDGE_CURVE('',#364,#356,#366,.T.);
#364 = VERTEX_POINT('',#365);
#365 = CARTESIAN_POINT('',(5.,3.9,1.5));
#366 = LINE('',#367,#368);
#367 = CARTESIAN_POINT('',(5.,3.9,1.5));
#368 = VECTOR('',#369,1.);
#369 = DIRECTION('',(0.,0.,1.));
#370 = ORIENTED_EDGE('',*,*,#371,.F.);
#371 = EDGE_CURVE('',#372,#364,#374,.T.);
#372 = VERTEX_POINT('',#373);
#373 = CARTESIAN_POINT('',(5.,-4.1,1.5));
#374 = LINE('',#375,#376);
#375 = CARTESIAN_POINT('',(5.,-4.1,1.5));
#376 = VECTOR('',#377,1.);
#377 = DIRECTION('',(0.,1.,0.));
#378 = ORIENTED_EDGE('',*,*,#379,.F.);
#379 = EDGE_CURVE('',#299,#372,#380,.T.);
#380 = LINE('',#381,#382);
#381 = CARTESIAN_POINT('',(5.,-4.1,0.));
#382 = VECTOR('',#383,1.);
#383 = DIRECTION('',(0.,0.,1.));
#384 = PLANE('',#385);
#385 = AXIS2_PLACEMENT_3D('',#386,#387,#388);
#386 = CARTESIAN_POINT('',(5.,-5.,0.));
#387 = DIRECTION('',(-1.,0.,0.));
#388 = DIRECTION('',(0.,1.,0.));
#389 = ADVANCED_FACE('',(#390),#415,.F.);
#390 = FACE_BOUND('',#391,.F.);
#391 = EDGE_LOOP('',(#392,#400,#401,#409));
#392 = ORIENTED_EDGE('',*,*,#393,.T.);
#393 = EDGE_CURVE('',#394,#191,#396,.T.);
#394 = VERTEX_POINT('',#395);
#395 = CARTESIAN_POINT('',(4.,3.9,5.5));
#396 = LINE('',#397,#398);
#397 = CARTESIAN_POINT('',(4.,3.9,5.5));
#398 = VECTOR('',#399,1.);
#399 = DIRECTION('',(0.,-1.,2.22044604925E-16));
#400 = ORIENTED_EDGE('',*,*,#190,.T.);
#401 = ORIENTED_EDGE('',*,*,#402,.F.);
#402 = EDGE_CURVE('',#403,#193,#405,.T.);
#403 = VERTEX_POINT('',#404);
#404 = CARTESIAN_POINT('',(-4.,3.9,5.5));
#405 = LINE('',#406,#407);
#406 = CARTESIAN_POINT('',(-4.,3.9,5.5));
#407 = VECTOR('',#408,1.);
#408 = DIRECTION('',(0.,-1.,2.22044604925E-16));
#409 = ORIENTED_EDGE('',*,*,#410,.F.);
#410 = EDGE_CURVE('',#394,#403,#411,.T.);
#411 = LINE('',#412,#413);
#412 = CARTESIAN_POINT('',(4.,3.9,5.5));
#413 = VECTOR('',#414,1.);
#414 = DIRECTION('',(-1.,0.,0.));
#415 = PLANE('',#416);
#416 = AXIS2_PLACEMENT_3D('',#417,#418,#419);
#417 = CARTESIAN_POINT('',(4.,3.9,5.5));
#418 = DIRECTION('',(-0.,-2.22044604925E-16,-1.));
#419 = DIRECTION('',(-1.,0.,0.));
#420 = ADVANCED_FACE('',(#421),#439,.F.);
#421 = FACE_BOUND('',#422,.F.);
#422 = EDGE_LOOP('',(#423,#431,#432,#433));
#423 = ORIENTED_EDGE('',*,*,#424,.T.);
#424 = EDGE_CURVE('',#425,#209,#427,.T.);
#425 = VERTEX_POINT('',#426);
#426 = CARTESIAN_POINT('',(4.,3.9,10.3));
#427 = LINE('',#428,#429);
#428 = CARTESIAN_POINT('',(4.,3.9,10.3));
#429 = VECTOR('',#430,1.);
#430 = DIRECTION('',(0.,-1.,2.22044604925E-16));
#431 = ORIENTED_EDGE('',*,*,#216,.T.);
#432 = ORIENTED_EDGE('',*,*,#393,.F.);
#433 = ORIENTED_EDGE('',*,*,#434,.F.);
#434 = EDGE_CURVE('',#425,#394,#435,.T.);
#435 = LINE('',#436,#437);
#436 = CARTESIAN_POINT('',(4.,3.9,10.3));
#437 = VECTOR('',#438,1.);
#438 = DIRECTION('',(0.,-2.22044604925E-16,-1.));
#439 = PLANE('',#440);
#440 = AXIS2_PLACEMENT_3D('',#441,#442,#443);
#441 = CARTESIAN_POINT('',(4.,3.9,10.3));
#442 = DIRECTION('',(1.,0.,0.));
#443 = DIRECTION('',(0.,-2.22044604925E-16,-1.));
#444 = ADVANCED_FACE('',(#445),#463,.F.);
#445 = FACE_BOUND('',#446,.F.);
#446 = EDGE_LOOP('',(#447,#448,#449,#457));
#447 = ORIENTED_EDGE('',*,*,#402,.T.);
#448 = ORIENTED_EDGE('',*,*,#200,.T.);
#449 = ORIENTED_EDGE('',*,*,#450,.F.);
#450 = EDGE_CURVE('',#451,#201,#453,.T.);
#451 = VERTEX_POINT('',#452);
#452 = CARTESIAN_POINT('',(-4.,3.9,10.3));
#453 = LINE('',#454,#455);
#454 = CARTESIAN_POINT('',(-4.,3.9,10.3));
#455 = VECTOR('',#456,1.);
#456 = DIRECTION('',(0.,-1.,2.22044604925E-16));
#457 = ORIENTED_EDGE('',*,*,#458,.F.);
#458 = EDGE_CURVE('',#403,#451,#459,.T.);
#459 = LINE('',#460,#461);
#460 = CARTESIAN_POINT('',(-4.,3.9,5.5));
#461 = VECTOR('',#462,1.);
#462 = DIRECTION('',(0.,2.22044604925E-16,1.));
#463 = PLANE('',#464);
#464 = AXIS2_PLACEMENT_3D('',#465,#466,#467);
#465 = CARTESIAN_POINT('',(-4.,3.9,5.5));
#466 = DIRECTION('',(-1.,0.,0.));
#467 = DIRECTION('',(0.,2.22044604925E-16,1.));
#468 = ADVANCED_FACE('',(#469),#480,.F.);
#469 = FACE_BOUND('',#470,.F.);
#470 = EDGE_LOOP('',(#471,#472,#473,#474));
#471 = ORIENTED_EDGE('',*,*,#450,.T.);
#472 = ORIENTED_EDGE('',*,*,#208,.T.);
#473 = ORIENTED_EDGE('',*,*,#424,.F.);
#474 = ORIENTED_EDGE('',*,*,#475,.F.);
#475 = EDGE_CURVE('',#451,#425,#476,.T.);
#476 = LINE('',#477,#478);
#477 = CARTESIAN_POINT('',(-4.,3.9,10.3));
#478 = VECTOR('',#479,1.);
#479 = DIRECTION('',(1.,0.,0.));
#480 = PLANE('',#481);
#481 = AXIS2_PLACEMENT_3D('',#482,#483,#484);
#482 = CARTESIAN_POINT('',(-4.,3.9,10.3));
#483 = DIRECTION('',(0.,2.22044604925E-16,1.));
#484 = DIRECTION('',(1.,0.,0.));
#485 = ADVANCED_FACE('',(#486),#502,.T.);
#486 = FACE_BOUND('',#487,.T.);
#487 = EDGE_LOOP('',(#488,#489,#495,#496));
#488 = ORIENTED_EDGE('',*,*,#355,.F.);
#489 = ORIENTED_EDGE('',*,*,#490,.T.);
#490 = EDGE_CURVE('',#356,#234,#491,.T.);
#491 = LINE('',#492,#493);
#492 = CARTESIAN_POINT('',(5.,3.9,11.2));
#493 = VECTOR('',#494,1.);
#494 = DIRECTION('',(-1.,-0.,-0.));
#495 = ORIENTED_EDGE('',*,*,#233,.T.);
#496 = ORIENTED_EDGE('',*,*,#497,.F.);
#497 = EDGE_CURVE('',#348,#236,#498,.T.);
#498 = LINE('',#499,#500);
#499 = CARTESIAN_POINT('',(5.,5.,11.2));
#500 = VECTOR('',#501,1.);
#501 = DIRECTION('',(-1.,-0.,-0.));
#502 = PLANE('',#503);
#503 = AXIS2_PLACEMENT_3D('',#504,#505,#506);
#504 = CARTESIAN_POINT('',(5.,3.9,11.2));
#505 = DIRECTION('',(0.,0.,-1.));
#506 = DIRECTION('',(0.,1.,0.));
#507 = ADVANCED_FACE('',(#508,#519),#525,.T.);
#508 = FACE_BOUND('',#509,.T.);
#509 = EDGE_LOOP('',(#510,#511,#517,#518));
#510 = ORIENTED_EDGE('',*,*,#363,.F.);
#511 = ORIENTED_EDGE('',*,*,#512,.T.);
#512 = EDGE_CURVE('',#364,#275,#513,.T.);
#513 = LINE('',#514,#515);
#514 = CARTESIAN_POINT('',(5.,3.9,1.5));
#515 = VECTOR('',#516,1.);
#516 = DIRECTION('',(-1.,-0.,-0.));
#517 = ORIENTED_EDGE('',*,*,#282,.T.);
#518 = ORIENTED_EDGE('',*,*,#490,.F.);
#519 = FACE_BOUND('',#520,.T.);
#520 = EDGE_LOOP('',(#521,#522,#523,#524));
#521 = ORIENTED_EDGE('',*,*,#410,.F.);
#522 = ORIENTED_EDGE('',*,*,#434,.F.);
#523 = ORIENTED_EDGE('',*,*,#475,.F.);
#524 = ORIENTED_EDGE('',*,*,#458,.F.);
#525 = PLANE('',#526);
#526 = AXIS2_PLACEMENT_3D('',#527,#528,#529);
#527 = CARTESIAN_POINT('',(5.,3.9,1.5));
#528 = DIRECTION('',(0.,1.,0.));
#529 = DIRECTION('',(0.,0.,1.));
#530 = ADVANCED_FACE('',(#531),#542,.T.);
#531 = FACE_BOUND('',#532,.T.);
#532 = EDGE_LOOP('',(#533,#534,#540,#541));
#533 = ORIENTED_EDGE('',*,*,#371,.F.);
#534 = ORIENTED_EDGE('',*,*,#535,.T.);
#535 = EDGE_CURVE('',#372,#267,#536,.T.);
#536 = LINE('',#537,#538);
#537 = CARTESIAN_POINT('',(5.,-4.1,1.5));
#538 = VECTOR('',#539,1.);
#539 = DIRECTION('',(-1.,-0.,-0.));
#540 = ORIENTED_EDGE('',*,*,#274,.T.);
#541 = ORIENTED_EDGE('',*,*,#512,.F.);
#542 = PLANE('',#543);
#543 = AXIS2_PLACEMENT_3D('',#544,#545,#546);
#544 = CARTESIAN_POINT('',(5.,-4.1,1.5));
#545 = DIRECTION('',(0.,0.,-1.));
#546 = DIRECTION('',(0.,1.,0.));
#547 = ADVANCED_FACE('',(#548),#554,.T.);
#548 = FACE_BOUND('',#549,.T.);
#549 = EDGE_LOOP('',(#550,#551,#552,#553));
#550 = ORIENTED_EDGE('',*,*,#379,.F.);
#551 = ORIENTED_EDGE('',*,*,#306,.T.);
#552 = ORIENTED_EDGE('',*,*,#266,.T.);
#553 = ORIENTED_EDGE('',*,*,#535,.F.);
#554 = PLANE('',#555);
#555 = AXIS2_PLACEMENT_3D('',#556,#557,#558);
#556 = CARTESIAN_POINT('',(5.,-4.1,0.));
#557 = DIRECTION('',(0.,1.,0.));
#558 = DIRECTION('',(0.,0.,1.));
#559 = ADVANCED_FACE('',(#560),#566,.F.);
#560 = FACE_BOUND('',#561,.F.);
#561 = EDGE_LOOP('',(#562,#563,#564,#565));
#562 = ORIENTED_EDGE('',*,*,#497,.F.);
#563 = ORIENTED_EDGE('',*,*,#347,.T.);
#564 = ORIENTED_EDGE('',*,*,#329,.T.);
#565 = ORIENTED_EDGE('',*,*,#243,.F.);
#566 = PLANE('',#567);
#567 = AXIS2_PLACEMENT_3D('',#568,#569,#570);
#568 = CARTESIAN_POINT('',(5.,5.,0.));
#569 = DIRECTION('',(0.,-1.,0.));
#570 = DIRECTION('',(-1.,0.,0.));
#571 = ( GEOMETRIC_REPRESENTATION_CONTEXT(3) 
GLOBAL_UNCERTAINTY_ASSIGNED_CONTEXT((#575)) GLOBAL_UNIT_ASSIGNED_CONTEXT
((#572,#573,#574)) REPRESENTATION_CONTEXT('Context #1',
  '3D Context with UNIT and UNCERTAINTY') );
#572 = ( LENGTH_UNIT() NAMED_UNIT(*) SI_UNIT(.MILLI.,.METRE.) );
#573 = ( NAMED_UNIT(*) PLANE_ANGLE_UNIT() SI_UNIT($,.RADIAN.) );
#574 = ( NAMED_UNIT(*) SI_UNIT($,.STERADIAN.) SOLID_ANGLE_UNIT() );
#575 = UNCERTAINTY_MEASURE_WITH_UNIT(LENGTH_MEASURE(2.E-06),#572,
  'distance_accuracy_value','confusion accuracy');
#576 = CONTEXT_DEPENDENT_SHAPE_REPRESENTATION(#577,#579);
#577 = ( REPRESENTATION_RELATIONSHIP('','',#36,#10) 
REPRESENTATION_RELATIONSHIP_WITH_TRANSFORMATION(#578) 
SHAPE_REPRESENTATION_RELATIONSHIP() );
#578 = ITEM_DEFINED_TRANSFORMATION('','',#11,#15);
#579 = PRODUCT_DEFINITION_SHAPE('Placement','Placement of an item',#580
  );
#580 = NEXT_ASSEMBLY_USAGE_OCCURRENCE('7','Body','',#5,#31,$);
#581 = PRODUCT_RELATED_PRODUCT_CATEGORY('part',$,(#33));
#582 = SHAPE_DEFINITION_REPRESENTATION(#583,#589);
#583 = PRODUCT_DEFINITION_SHAPE('','',#584);
#584 = PRODUCT_DEFINITION('design','',#585,#588);
#585 = PRODUCT_DEFINITION_FORMATION('','',#586);
#586 = PRODUCT('Contacts','Contacts','',(#587));
#587 = PRODUCT_CONTEXT('',#2,'mechanical');
#588 = PRODUCT_DEFINITION_CONTEXT('part definition',#2,'design');
#589 = ADVANCED_BREP_SHAPE_REPRESENTATION('',(#11,#590),#1987);
#590 = MANIFOLD_SOLID_BREP('',#591);
#591 = CLOSED_SHELL('',(#592,#632,#689,#736,#769,#803,#820,#840,#962,
    #1000,#1017,#1031,#1056,#1144,#1168,#1249,#1337,#1361,#1442,#1473,
    #1529,#1585,#1602,#1619,#1636,#1645,#1662,#1679,#1696,#1713,#1730,
    #1747,#1764,#1776,#1793,#1810,#1827,#1844,#1861,#1878,#1895,#1907,
    #1924,#1941,#1958,#1975));
#592 = ADVANCED_FACE('',(#593),#627,.F.);
#593 = FACE_BOUND('',#594,.F.);
#594 = EDGE_LOOP('',(#595,#605,#613,#621));
#595 = ORIENTED_EDGE('',*,*,#596,.T.);
#596 = EDGE_CURVE('',#597,#599,#601,.T.);
#597 = VERTEX_POINT('',#598);
#598 = CARTESIAN_POINT('',(3.31247641501,-4.5,5.5));
#599 = VERTEX_POINT('',#600);
#600 = CARTESIAN_POINT('',(3.31247641501,-4.,5.5));
#601 = LINE('',#602,#603);
#602 = CARTESIAN_POINT('',(3.31247641501,-4.5,5.5));
#603 = VECTOR('',#604,1.);
#604 = DIRECTION('',(0.,1.,-2.22044604925E-16));
#605 = ORIENTED_EDGE('',*,*,#606,.T.);
#606 = EDGE_CURVE('',#599,#607,#609,.T.);
#607 = VERTEX_POINT('',#608);
#608 = CARTESIAN_POINT('',(4.75,-4.,5.5));
#609 = LINE('',#610,#611);
#610 = CARTESIAN_POINT('',(3.31247641501,-4.,5.5));
#611 = VECTOR('',#612,1.);
#612 = DIRECTION('',(1.,1.37190950023E-31,6.178531114024E-16));
#613 = ORIENTED_EDGE('',*,*,#614,.F.);
#614 = EDGE_CURVE('',#615,#607,#617,.T.);
#615 = VERTEX_POINT('',#616);
#616 = CARTESIAN_POINT('',(4.75,-4.5,5.5));
#617 = LINE('',#618,#619);
#618 = CARTESIAN_POINT('',(4.75,-4.5,5.5));
#619 = VECTOR('',#620,1.);
#620 = DIRECTION('',(0.,1.,-2.22044604925E-16));
#621 = ORIENTED_EDGE('',*,*,#622,.F.);
#622 = EDGE_CURVE('',#597,#615,#623,.T.);
#623 = LINE('',#624,#625);
#624 = CARTESIAN_POINT('',(3.31247641501,-4.5,5.5));
#625 = VECTOR('',#626,1.);
#626 = DIRECTION('',(1.,1.37190950023E-31,6.178531114024E-16));
#627 = PLANE('',#628);
#628 = AXIS2_PLACEMENT_3D('',#629,#630,#631);
#629 = CARTESIAN_POINT('',(3.31247641501,-4.5,5.5));
#630 = DIRECTION('',(6.178531114024E-16,-2.22044604925E-16,-1.));
#631 = DIRECTION('',(1.,1.37190950023E-31,6.178531114024E-16));
#632 = ADVANCED_FACE('',(#633),#684,.T.);
#633 = FACE_BOUND('',#634,.F.);
#634 = EDGE_LOOP('',(#635,#636,#645,#653,#662,#669,#676,#677));
#635 = ORIENTED_EDGE('',*,*,#596,.F.);
#636 = ORIENTED_EDGE('',*,*,#637,.F.);
#637 = EDGE_CURVE('',#638,#597,#640,.T.);
#638 = VERTEX_POINT('',#639);
#639 = CARTESIAN_POINT('',(-3.31247641501,-4.5,5.5));
#640 = CIRCLE('',#641,4.15);
#641 = AXIS2_PLACEMENT_3D('',#642,#643,#644);
#642 = CARTESIAN_POINT('',(0.,-4.5,8.));
#643 = DIRECTION('',(0.,-1.,2.22044604925E-16));
#644 = DIRECTION('',(1.,0.,0.));
#645 = ORIENTED_EDGE('',*,*,#646,.T.);
#646 = EDGE_CURVE('',#638,#647,#649,.T.);
#647 = VERTEX_POINT('',#648);
#648 = CARTESIAN_POINT('',(-3.31247641501,-4.,5.5));
#649 = LINE('',#650,#651);
#650 = CARTESIAN_POINT('',(-3.31247641501,-4.5,5.5));
#651 = VECTOR('',#652,1.);
#652 = DIRECTION('',(0.,1.,-2.22044604925E-16));
#653 = ORIENTED_EDGE('',*,*,#654,.T.);
#654 = EDGE_CURVE('',#647,#655,#657,.T.);
#655 = VERTEX_POINT('',#656);
#656 = CARTESIAN_POINT('',(4.15,-4.,8.));
#657 = CIRCLE('',#658,4.15);
#658 = AXIS2_PLACEMENT_3D('',#659,#660,#661);
#659 = CARTESIAN_POINT('',(-8.602424882275E-32,-4.,8.));
#660 = DIRECTION('',(0.,1.,-2.22044604925E-16));
#661 = DIRECTION('',(-1.,0.,0.));
#662 = ORIENTED_EDGE('',*,*,#663,.F.);
#663 = EDGE_CURVE('',#664,#655,#666,.T.);
#664 = VERTEX_POINT('',#665);
#665 = CARTESIAN_POINT('',(4.15,-14.5,8.));
#666 = B_SPLINE_CURVE_WITH_KNOTS('',1,(#667,#668),.UNSPECIFIED.,.F.,.F.,
  (2,2),(-9.5,1.),.PIECEWISE_BEZIER_KNOTS.);
#667 = CARTESIAN_POINT('',(4.15,-14.5,8.));
#668 = CARTESIAN_POINT('',(4.15,-4.,8.));
#669 = ORIENTED_EDGE('',*,*,#670,.T.);
#670 = EDGE_CURVE('',#664,#664,#671,.T.);
#671 = CIRCLE('',#672,4.15);
#672 = AXIS2_PLACEMENT_3D('',#673,#674,#675);
#673 = CARTESIAN_POINT('',(0.,-14.5,8.));
#674 = DIRECTION('',(0.,-1.,2.22044604925E-16));
#675 = DIRECTION('',(1.,0.,0.));
#676 = ORIENTED_EDGE('',*,*,#663,.T.);
#677 = ORIENTED_EDGE('',*,*,#678,.T.);
#678 = EDGE_CURVE('',#655,#599,#679,.T.);
#679 = CIRCLE('',#680,4.15);
#680 = AXIS2_PLACEMENT_3D('',#681,#682,#683);
#681 = CARTESIAN_POINT('',(-8.602424882275E-32,-4.,8.));
#682 = DIRECTION('',(0.,1.,-2.22044604925E-16));
#683 = DIRECTION('',(-1.,0.,0.));
#684 = CYLINDRICAL_SURFACE('',#685,4.15);
#685 = AXIS2_PLACEMENT_3D('',#686,#687,#688);
#686 = CARTESIAN_POINT('',(0.,-5.,8.));
#687 = DIRECTION('',(0.,1.,-2.22044604925E-16));
#688 = DIRECTION('',(1.,0.,0.));
#689 = ADVANCED_FACE('',(#690),#731,.T.);
#690 = FACE_BOUND('',#691,.T.);
#691 = EDGE_LOOP('',(#692,#700,#708,#716,#724,#730));
#692 = ORIENTED_EDGE('',*,*,#693,.T.);
#693 = EDGE_CURVE('',#615,#694,#696,.T.);
#694 = VERTEX_POINT('',#695);
#695 = CARTESIAN_POINT('',(4.75,-4.5,1.75));
#696 = LINE('',#697,#698);
#697 = CARTESIAN_POINT('',(4.75,-4.5,5.5));
#698 = VECTOR('',#699,1.);
#699 = DIRECTION('',(0.,-2.22044604925E-16,-1.));
#700 = ORIENTED_EDGE('',*,*,#701,.T.);
#701 = EDGE_CURVE('',#694,#702,#704,.T.);
#702 = VERTEX_POINT('',#703);
#703 = CARTESIAN_POINT('',(4.75,3.65,1.75));
#704 = LINE('',#705,#706);
#705 = CARTESIAN_POINT('',(4.75,-4.5,1.75));
#706 = VECTOR('',#707,1.);
#707 = DIRECTION('',(0.,1.,-2.22044604925E-16));
#708 = ORIENTED_EDGE('',*,*,#709,.T.);
#709 = EDGE_CURVE('',#702,#710,#712,.T.);
#710 = VERTEX_POINT('',#711);
#711 = CARTESIAN_POINT('',(4.75,3.65,2.25));
#712 = LINE('',#713,#714);
#713 = CARTESIAN_POINT('',(4.75,3.65,1.75));
#714 = VECTOR('',#715,1.);
#715 = DIRECTION('',(0.,0.,1.));
#716 = ORIENTED_EDGE('',*,*,#717,.T.);
#717 = EDGE_CURVE('',#710,#718,#720,.T.);
#718 = VERTEX_POINT('',#719);
#719 = CARTESIAN_POINT('',(4.75,-4.,2.25));
#720 = LINE('',#721,#722);
#721 = CARTESIAN_POINT('',(4.75,3.65,2.25));
#722 = VECTOR('',#723,1.);
#723 = DIRECTION('',(0.,-1.,0.));
#724 = ORIENTED_EDGE('',*,*,#725,.F.);
#725 = EDGE_CURVE('',#607,#718,#726,.T.);
#726 = LINE('',#727,#728);
#727 = CARTESIAN_POINT('',(4.75,-4.,5.5));
#728 = VECTOR('',#729,1.);
#729 = DIRECTION('',(0.,-2.22044604925E-16,-1.));
#730 = ORIENTED_EDGE('',*,*,#614,.F.);
#731 = PLANE('',#732);
#732 = AXIS2_PLACEMENT_3D('',#733,#734,#735);
#733 = CARTESIAN_POINT('',(4.75,-1.469642857143,2.580357142857));
#734 = DIRECTION('',(1.,0.,0.));
#735 = DIRECTION('',(0.,0.,1.));
#736 = ADVANCED_FACE('',(#737),#764,.T.);
#737 = FACE_BOUND('',#738,.T.);
#738 = EDGE_LOOP('',(#739,#749,#755,#756,#757,#758));
#739 = ORIENTED_EDGE('',*,*,#740,.F.);
#740 = EDGE_CURVE('',#741,#743,#745,.T.);
#741 = VERTEX_POINT('',#742);
#742 = CARTESIAN_POINT('',(-4.75,-4.5,1.75));
#743 = VERTEX_POINT('',#744);
#744 = CARTESIAN_POINT('',(-4.75,-4.5,5.5));
#745 = LINE('',#746,#747);
#746 = CARTESIAN_POINT('',(-4.75,-4.5,1.75));
#747 = VECTOR('',#748,1.);
#748 = DIRECTION('',(0.,2.22044604925E-16,1.));
#749 = ORIENTED_EDGE('',*,*,#750,.F.);
#750 = EDGE_CURVE('',#694,#741,#751,.T.);
#751 = LINE('',#752,#753);
#752 = CARTESIAN_POINT('',(4.75,-4.5,1.75));
#753 = VECTOR('',#754,1.);
#754 = DIRECTION('',(-1.,0.,0.));
#755 = ORIENTED_EDGE('',*,*,#693,.F.);
#756 = ORIENTED_EDGE('',*,*,#622,.F.);
#757 = ORIENTED_EDGE('',*,*,#637,.F.);
#758 = ORIENTED_EDGE('',*,*,#759,.F.);
#759 = EDGE_CURVE('',#743,#638,#760,.T.);
#760 = LINE('',#761,#762);
#761 = CARTESIAN_POINT('',(-4.75,-4.5,5.5));
#762 = VECTOR('',#763,1.);
#763 = DIRECTION('',(1.,0.,0.));
#764 = PLANE('',#765);
#765 = AXIS2_PLACEMENT_3D('',#766,#767,#768);
#766 = CARTESIAN_POINT('',(-9.71544074023E-17,-4.5,3.421311482851));
#767 = DIRECTION('',(-0.,-1.,-0.));
#768 = DIRECTION('',(0.,0.,-1.));
#769 = ADVANCED_FACE('',(#770),#798,.T.);
#770 = FACE_BOUND('',#771,.T.);
#771 = EDGE_LOOP('',(#772,#780,#781,#782,#783,#784,#792));
#772 = ORIENTED_EDGE('',*,*,#773,.T.);
#773 = EDGE_CURVE('',#774,#647,#776,.T.);
#774 = VERTEX_POINT('',#775);
#775 = CARTESIAN_POINT('',(-4.75,-4.,5.5));
#776 = LINE('',#777,#778);
#777 = CARTESIAN_POINT('',(-4.75,-4.,5.5));
#778 = VECTOR('',#779,1.);
#779 = DIRECTION('',(1.,0.,0.));
#780 = ORIENTED_EDGE('',*,*,#654,.T.);
#781 = ORIENTED_EDGE('',*,*,#678,.T.);
#782 = ORIENTED_EDGE('',*,*,#606,.T.);
#783 = ORIENTED_EDGE('',*,*,#725,.T.);
#784 = ORIENTED_EDGE('',*,*,#785,.F.);
#785 = EDGE_CURVE('',#786,#718,#788,.T.);
#786 = VERTEX_POINT('',#787);
#787 = CARTESIAN_POINT('',(-4.75,-4.,2.25));
#788 = LINE('',#789,#790);
#789 = CARTESIAN_POINT('',(1.332933875466E-16,-4.,2.25));
#790 = VECTOR('',#791,1.);
#791 = DIRECTION('',(1.,0.,0.));
#792 = ORIENTED_EDGE('',*,*,#793,.T.);
#793 = EDGE_CURVE('',#786,#774,#794,.T.);
#794 = LINE('',#795,#796);
#795 = CARTESIAN_POINT('',(-4.75,-4.,1.75));
#796 = VECTOR('',#797,1.);
#797 = DIRECTION('',(0.,2.22044604925E-16,1.));
#798 = PLANE('',#799);
#799 = AXIS2_PLACEMENT_3D('',#800,#801,#802);
#800 = CARTESIAN_POINT('',(2.665867750933E-16,-4.,5.842865544506));
#801 = DIRECTION('',(0.,1.,-2.874418025795E-16));
#802 = DIRECTION('',(0.,2.874418025795E-16,1.));
#803 = ADVANCED_FACE('',(#804),#815,.F.);
#804 = FACE_BOUND('',#805,.F.);
#805 = EDGE_LOOP('',(#806,#812,#813,#814));
#806 = ORIENTED_EDGE('',*,*,#807,.T.);
#807 = EDGE_CURVE('',#743,#774,#808,.T.);
#808 = LINE('',#809,#810);
#809 = CARTESIAN_POINT('',(-4.75,-4.5,5.5));
#810 = VECTOR('',#811,1.);
#811 = DIRECTION('',(0.,1.,-2.22044604925E-16));
#812 = ORIENTED_EDGE('',*,*,#773,.T.);
#813 = ORIENTED_EDGE('',*,*,#646,.F.);
#814 = ORIENTED_EDGE('',*,*,#759,.F.);
#815 = PLANE('',#816);
#816 = AXIS2_PLACEMENT_3D('',#817,#818,#819);
#817 = CARTESIAN_POINT('',(-4.75,-4.5,5.5));
#818 = DIRECTION('',(0.,-2.22044604925E-16,-1.));
#819 = DIRECTION('',(1.,0.,0.));
#820 = ADVANCED_FACE('',(#821,#824),#835,.F.);
#821 = FACE_BOUND('',#822,.F.);
#822 = EDGE_LOOP('',(#823));
#823 = ORIENTED_EDGE('',*,*,#670,.F.);
#824 = FACE_BOUND('',#825,.F.);
#825 = EDGE_LOOP('',(#826));
#826 = ORIENTED_EDGE('',*,*,#827,.T.);
#827 = EDGE_CURVE('',#828,#828,#830,.T.);
#828 = VERTEX_POINT('',#829);
#829 = CARTESIAN_POINT('',(3.5,-14.5,8.));
#830 = CIRCLE('',#831,3.5);
#831 = AXIS2_PLACEMENT_3D('',#832,#833,#834);
#832 = CARTESIAN_POINT('',(0.,-14.5,8.));
#833 = DIRECTION('',(0.,-1.,2.22044604925E-16));
#834 = DIRECTION('',(1.,0.,0.));
#835 = PLANE('',#836);
#836 = AXIS2_PLACEMENT_3D('',#837,#838,#839);
#837 = CARTESIAN_POINT('',(-2.471277347963E-16,-14.5,8.));
#838 = DIRECTION('',(0.,1.,-2.471277347963E-16));
#839 = DIRECTION('',(0.,2.471277347963E-16,1.));
#840 = ADVANCED_FACE('',(#841,#923),#957,.T.);
#841 = FACE_BOUND('',#842,.T.);
#842 = EDGE_LOOP('',(#843,#844,#845,#853,#861,#869,#877,#885,#893,#901,
    #909,#917));
#843 = ORIENTED_EDGE('',*,*,#701,.F.);
#844 = ORIENTED_EDGE('',*,*,#750,.T.);
#845 = ORIENTED_EDGE('',*,*,#846,.T.);
#846 = EDGE_CURVE('',#741,#847,#849,.T.);
#847 = VERTEX_POINT('',#848);
#848 = CARTESIAN_POINT('',(-4.75,3.65,1.75));
#849 = LINE('',#850,#851);
#850 = CARTESIAN_POINT('',(-4.75,-4.5,1.75));
#851 = VECTOR('',#852,1.);
#852 = DIRECTION('',(0.,1.,0.));
#853 = ORIENTED_EDGE('',*,*,#854,.T.);
#854 = EDGE_CURVE('',#847,#855,#857,.T.);
#855 = VERTEX_POINT('',#856);
#856 = CARTESIAN_POINT('',(-4.,3.65,1.75));
#857 = LINE('',#858,#859);
#858 = CARTESIAN_POINT('',(-4.75,3.65,1.75));
#859 = VECTOR('',#860,1.);
#860 = DIRECTION('',(1.,0.,0.));
#861 = ORIENTED_EDGE('',*,*,#862,.T.);
#862 = EDGE_CURVE('',#855,#863,#865,.T.);
#863 = VERTEX_POINT('',#864);
#864 = CARTESIAN_POINT('',(-4.,1.95,1.75));
#865 = LINE('',#866,#867);
#866 = CARTESIAN_POINT('',(-4.,3.95,1.75));
#867 = VECTOR('',#868,1.);
#868 = DIRECTION('',(-2.22044604925E-16,-1.,2.22044604925E-16));
#869 = ORIENTED_EDGE('',*,*,#870,.T.);
#870 = EDGE_CURVE('',#863,#871,#873,.T.);
#871 = VERTEX_POINT('',#872);
#872 = CARTESIAN_POINT('',(-3.5,1.95,1.75));
#873 = LINE('',#874,#875);
#874 = CARTESIAN_POINT('',(-4.,1.95,1.75));
#875 = VECTOR('',#876,1.);
#876 = DIRECTION('',(1.,-2.22044604925E-16,2.22044604925E-16));
#877 = ORIENTED_EDGE('',*,*,#878,.F.);
#878 = EDGE_CURVE('',#879,#871,#881,.T.);
#879 = VERTEX_POINT('',#880);
#880 = CARTESIAN_POINT('',(-3.5,3.65,1.75));
#881 = LINE('',#882,#883);
#882 = CARTESIAN_POINT('',(-3.5,3.95,1.75));
#883 = VECTOR('',#884,1.);
#884 = DIRECTION('',(-2.22044604925E-16,-1.,2.22044604925E-16));
#885 = ORIENTED_EDGE('',*,*,#886,.T.);
#886 = EDGE_CURVE('',#879,#887,#889,.T.);
#887 = VERTEX_POINT('',#888);
#888 = CARTESIAN_POINT('',(3.5,3.65,1.75));
#889 = LINE('',#890,#891);
#890 = CARTESIAN_POINT('',(-4.75,3.65,1.75));
#891 = VECTOR('',#892,1.);
#892 = DIRECTION('',(1.,0.,0.));
#893 = ORIENTED_EDGE('',*,*,#894,.T.);
#894 = EDGE_CURVE('',#887,#895,#897,.T.);
#895 = VERTEX_POINT('',#896);
#896 = CARTESIAN_POINT('',(3.5,1.95,1.75));
#897 = LINE('',#898,#899);
#898 = CARTESIAN_POINT('',(3.5,3.95,1.75));
#899 = VECTOR('',#900,1.);
#900 = DIRECTION('',(0.,-1.,2.22044604925E-16));
#901 = ORIENTED_EDGE('',*,*,#902,.F.);
#902 = EDGE_CURVE('',#903,#895,#905,.T.);
#903 = VERTEX_POINT('',#904);
#904 = CARTESIAN_POINT('',(4.,1.95,1.75));
#905 = LINE('',#906,#907);
#906 = CARTESIAN_POINT('',(4.,1.95,1.75));
#907 = VECTOR('',#908,1.);
#908 = DIRECTION('',(-1.,-0.,-0.));
#909 = ORIENTED_EDGE('',*,*,#910,.F.);
#910 = EDGE_CURVE('',#911,#903,#913,.T.);
#911 = VERTEX_POINT('',#912);
#912 = CARTESIAN_POINT('',(4.,3.65,1.75));
#913 = LINE('',#914,#915);
#914 = CARTESIAN_POINT('',(4.,3.95,1.75));
#915 = VECTOR('',#916,1.);
#916 = DIRECTION('',(0.,-1.,2.22044604925E-16));
#917 = ORIENTED_EDGE('',*,*,#918,.T.);
#918 = EDGE_CURVE('',#911,#702,#919,.T.);
#919 = LINE('',#920,#921);
#920 = CARTESIAN_POINT('',(-4.75,3.65,1.75));
#921 = VECTOR('',#922,1.);
#922 = DIRECTION('',(1.,0.,0.));
#923 = FACE_BOUND('',#924,.T.);
#924 = EDGE_LOOP('',(#925,#935,#943,#951));
#925 = ORIENTED_EDGE('',*,*,#926,.F.);
#926 = EDGE_CURVE('',#927,#929,#931,.T.);
#927 = VERTEX_POINT('',#928);
#928 = CARTESIAN_POINT('',(1.,-1.5,1.75));
#929 = VERTEX_POINT('',#930);
#930 = CARTESIAN_POINT('',(-1.,-1.5,1.75));
#931 = LINE('',#932,#933);
#932 = CARTESIAN_POINT('',(1.,-1.5,1.75));
#933 = VECTOR('',#934,1.);
#934 = DIRECTION('',(-1.,-0.,-0.));
#935 = ORIENTED_EDGE('',*,*,#936,.F.);
#936 = EDGE_CURVE('',#937,#927,#939,.T.);
#937 = VERTEX_POINT('',#938);
#938 = CARTESIAN_POINT('',(1.,-0.5,1.75));
#939 = LINE('',#940,#941);
#940 = CARTESIAN_POINT('',(1.,-0.5,1.75));
#941 = VECTOR('',#942,1.);
#942 = DIRECTION('',(0.,-1.,0.));
#943 = ORIENTED_EDGE('',*,*,#944,.T.);
#944 = EDGE_CURVE('',#937,#945,#947,.T.);
#945 = VERTEX_POINT('',#946);
#946 = CARTESIAN_POINT('',(-1.,-0.5,1.75));
#947 = LINE('',#948,#949);
#948 = CARTESIAN_POINT('',(1.,-0.5,1.75));
#949 = VECTOR('',#950,1.);
#950 = DIRECTION('',(-1.,-0.,-0.));
#951 = ORIENTED_EDGE('',*,*,#952,.T.);
#952 = EDGE_CURVE('',#945,#929,#953,.T.);
#953 = LINE('',#954,#955);
#954 = CARTESIAN_POINT('',(-1.,-0.5,1.75));
#955 = VECTOR('',#956,1.);
#956 = DIRECTION('',(0.,-1.,0.));
#957 = PLANE('',#958);
#958 = AXIS2_PLACEMENT_3D('',#959,#960,#961);
#959 = CARTESIAN_POINT('',(0.,-0.425,1.75));
#960 = DIRECTION('',(-0.,-0.,-1.));
#961 = DIRECTION('',(-1.,0.,0.));
#962 = ADVANCED_FACE('',(#963),#995,.T.);
#963 = FACE_BOUND('',#964,.T.);
#964 = EDGE_LOOP('',(#965,#973,#979,#980,#981,#987,#988,#994));
#965 = ORIENTED_EDGE('',*,*,#966,.T.);
#966 = EDGE_CURVE('',#847,#967,#969,.T.);
#967 = VERTEX_POINT('',#968);
#968 = CARTESIAN_POINT('',(-4.75,3.65,2.25));
#969 = LINE('',#970,#971);
#970 = CARTESIAN_POINT('',(-4.75,3.65,1.75));
#971 = VECTOR('',#972,1.);
#972 = DIRECTION('',(0.,0.,1.));
#973 = ORIENTED_EDGE('',*,*,#974,.T.);
#974 = EDGE_CURVE('',#967,#710,#975,.T.);
#975 = LINE('',#976,#977);
#976 = CARTESIAN_POINT('',(-4.75,3.65,2.25));
#977 = VECTOR('',#978,1.);
#978 = DIRECTION('',(1.,0.,0.));
#979 = ORIENTED_EDGE('',*,*,#709,.F.);
#980 = ORIENTED_EDGE('',*,*,#918,.F.);
#981 = ORIENTED_EDGE('',*,*,#982,.F.);
#982 = EDGE_CURVE('',#887,#911,#983,.T.);
#983 = LINE('',#984,#985);
#984 = CARTESIAN_POINT('',(-4.75,3.65,1.75));
#985 = VECTOR('',#986,1.);
#986 = DIRECTION('',(1.,0.,0.));
#987 = ORIENTED_EDGE('',*,*,#886,.F.);
#988 = ORIENTED_EDGE('',*,*,#989,.F.);
#989 = EDGE_CURVE('',#855,#879,#990,.T.);
#990 = LINE('',#991,#992);
#991 = CARTESIAN_POINT('',(-4.75,3.65,1.75));
#992 = VECTOR('',#993,1.);
#993 = DIRECTION('',(1.,0.,0.));
#994 = ORIENTED_EDGE('',*,*,#854,.F.);
#995 = PLANE('',#996);
#996 = AXIS2_PLACEMENT_3D('',#997,#998,#999);
#997 = CARTESIAN_POINT('',(-4.75,3.65,1.75));
#998 = DIRECTION('',(0.,1.,0.));
#999 = DIRECTION('',(1.,0.,0.));
#1000 = ADVANCED_FACE('',(#1001),#1012,.T.);
#1001 = FACE_BOUND('',#1002,.T.);
#1002 = EDGE_LOOP('',(#1003,#1009,#1010,#1011));
#1003 = ORIENTED_EDGE('',*,*,#1004,.F.);
#1004 = EDGE_CURVE('',#786,#967,#1005,.T.);
#1005 = LINE('',#1006,#1007);
#1006 = CARTESIAN_POINT('',(-4.75,-4.5,2.25));
#1007 = VECTOR('',#1008,1.);
#1008 = DIRECTION('',(0.,1.,0.));
#1009 = ORIENTED_EDGE('',*,*,#785,.T.);
#1010 = ORIENTED_EDGE('',*,*,#717,.F.);
#1011 = ORIENTED_EDGE('',*,*,#974,.F.);
#1012 = PLANE('',#1013);
#1013 = AXIS2_PLACEMENT_3D('',#1014,#1015,#1016);
#1014 = CARTESIAN_POINT('',(0.,-0.425,2.25));
#1015 = DIRECTION('',(0.,0.,1.));
#1016 = DIRECTION('',(1.,0.,0.));
#1017 = ADVANCED_FACE('',(#1018),#1026,.T.);
#1018 = FACE_BOUND('',#1019,.T.);
#1019 = EDGE_LOOP('',(#1020,#1021,#1022,#1023,#1024,#1025));
#1020 = ORIENTED_EDGE('',*,*,#740,.T.);
#1021 = ORIENTED_EDGE('',*,*,#807,.T.);
#1022 = ORIENTED_EDGE('',*,*,#793,.F.);
#1023 = ORIENTED_EDGE('',*,*,#1004,.T.);
#1024 = ORIENTED_EDGE('',*,*,#966,.F.);
#1025 = ORIENTED_EDGE('',*,*,#846,.F.);
#1026 = PLANE('',#1027);
#1027 = AXIS2_PLACEMENT_3D('',#1028,#1029,#1030);
#1028 = CARTESIAN_POINT('',(-4.75,-1.469642857143,2.580357142857));
#1029 = DIRECTION('',(-1.,-0.,-0.));
#1030 = DIRECTION('',(0.,0.,-1.));
#1031 = ADVANCED_FACE('',(#1032),#1051,.F.);
#1032 = FACE_BOUND('',#1033,.F.);
#1033 = EDGE_LOOP('',(#1034,#1042,#1043,#1044));
#1034 = ORIENTED_EDGE('',*,*,#1035,.F.);
#1035 = EDGE_CURVE('',#828,#1036,#1038,.T.);
#1036 = VERTEX_POINT('',#1037);
#1037 = CARTESIAN_POINT('',(3.5,-5.,8.));
#1038 = LINE('',#1039,#1040);
#1039 = CARTESIAN_POINT('',(3.5,-14.5,8.));
#1040 = VECTOR('',#1041,1.);
#1041 = DIRECTION('',(0.,1.,-2.22044604925E-16));
#1042 = ORIENTED_EDGE('',*,*,#827,.F.);
#1043 = ORIENTED_EDGE('',*,*,#1035,.T.);
#1044 = ORIENTED_EDGE('',*,*,#1045,.T.);
#1045 = EDGE_CURVE('',#1036,#1036,#1046,.T.);
#1046 = CIRCLE('',#1047,3.5);
#1047 = AXIS2_PLACEMENT_3D('',#1048,#1049,#1050);
#1048 = CARTESIAN_POINT('',(0.,-5.,8.));
#1049 = DIRECTION('',(0.,-1.,2.22044604925E-16));
#1050 = DIRECTION('',(1.,0.,0.));
#1051 = CYLINDRICAL_SURFACE('',#1052,3.5);
#1052 = AXIS2_PLACEMENT_3D('',#1053,#1054,#1055);
#1053 = CARTESIAN_POINT('',(0.,-14.5,8.));
#1054 = DIRECTION('',(0.,-1.,2.22044604925E-16));
#1055 = DIRECTION('',(1.,0.,0.));
#1056 = ADVANCED_FACE('',(#1057),#1139,.T.);
#1057 = FACE_BOUND('',#1058,.T.);
#1058 = EDGE_LOOP('',(#1059,#1067,#1076,#1084,#1092,#1100,#1108,#1116,
    #1124,#1132,#1138));
#1059 = ORIENTED_EDGE('',*,*,#1060,.T.);
#1060 = EDGE_CURVE('',#903,#1061,#1063,.T.);
#1061 = VERTEX_POINT('',#1062);
#1062 = CARTESIAN_POINT('',(4.,1.95,-4.));
#1063 = LINE('',#1064,#1065);
#1064 = CARTESIAN_POINT('',(4.,1.95,1.75));
#1065 = VECTOR('',#1066,1.);
#1066 = DIRECTION('',(0.,0.,-1.));
#1067 = ORIENTED_EDGE('',*,*,#1068,.T.);
#1068 = EDGE_CURVE('',#1061,#1069,#1071,.T.);
#1069 = VERTEX_POINT('',#1070);
#1070 = CARTESIAN_POINT('',(4.,3.45,-4.));
#1071 = CIRCLE('',#1072,1.080974926888);
#1072 = AXIS2_PLACEMENT_3D('',#1073,#1074,#1075);
#1073 = CARTESIAN_POINT('',(4.,2.7,-3.221535618952));
#1074 = DIRECTION('',(1.,0.,0.));
#1075 = DIRECTION('',(0.,1.,0.));
#1076 = ORIENTED_EDGE('',*,*,#1077,.T.);
#1077 = EDGE_CURVE('',#1069,#1078,#1080,.T.);
#1078 = VERTEX_POINT('',#1079);
#1079 = CARTESIAN_POINT('',(4.,3.95,-2.873496));
#1080 = LINE('',#1081,#1082);
#1081 = CARTESIAN_POINT('',(4.,3.45,-4.));
#1082 = VECTOR('',#1083,1.);
#1083 = DIRECTION('',(0.,0.405685520569,0.914012723325));
#1084 = ORIENTED_EDGE('',*,*,#1085,.T.);
#1085 = EDGE_CURVE('',#1078,#1086,#1088,.T.);
#1086 = VERTEX_POINT('',#1087);
#1087 = CARTESIAN_POINT('',(4.,3.45,-2.539823));
#1088 = LINE('',#1089,#1090);
#1089 = CARTESIAN_POINT('',(4.,3.95,-2.873496));
#1090 = VECTOR('',#1091,1.);
#1091 = DIRECTION('',(0.,-0.831789404405,0.555091331872));
#1092 = ORIENTED_EDGE('',*,*,#1093,.T.);
#1093 = EDGE_CURVE('',#1086,#1094,#1096,.T.);
#1094 = VERTEX_POINT('',#1095);
#1095 = CARTESIAN_POINT('',(4.,3.45,0.));
#1096 = LINE('',#1097,#1098);
#1097 = CARTESIAN_POINT('',(4.,3.45,-2.539823));
#1098 = VECTOR('',#1099,1.);
#1099 = DIRECTION('',(0.,0.,1.));
#1100 = ORIENTED_EDGE('',*,*,#1101,.T.);
#1101 = EDGE_CURVE('',#1094,#1102,#1104,.T.);
#1102 = VERTEX_POINT('',#1103);
#1103 = CARTESIAN_POINT('',(4.,4.35,-1.123473381554E-17));
#1104 = LINE('',#1105,#1106);
#1105 = CARTESIAN_POINT('',(4.,3.45,0.));
#1106 = VECTOR('',#1107,1.);
#1107 = DIRECTION('',(0.,1.,-1.248303757282E-17));
#1108 = ORIENTED_EDGE('',*,*,#1109,.T.);
#1109 = EDGE_CURVE('',#1102,#1110,#1112,.T.);
#1110 = VERTEX_POINT('',#1111);
#1111 = CARTESIAN_POINT('',(4.,4.35,1.02449));
#1112 = LINE('',#1113,#1114);
#1113 = CARTESIAN_POINT('',(4.,4.35,-1.123473381554E-17));
#1114 = VECTOR('',#1115,1.);
#1115 = DIRECTION('',(0.,0.,1.));
#1116 = ORIENTED_EDGE('',*,*,#1117,.T.);
#1117 = EDGE_CURVE('',#1110,#1118,#1120,.T.);
#1118 = VERTEX_POINT('',#1119);
#1119 = CARTESIAN_POINT('',(4.,3.95,1.02449));
#1120 = LINE('',#1121,#1122);
#1121 = CARTESIAN_POINT('',(4.,4.35,1.02449));
#1122 = VECTOR('',#1123,1.);
#1123 = DIRECTION('',(0.,-1.,0.));
#1124 = ORIENTED_EDGE('',*,*,#1125,.T.);
#1125 = EDGE_CURVE('',#1118,#1126,#1128,.T.);
#1126 = VERTEX_POINT('',#1127);
#1127 = CARTESIAN_POINT('',(4.,3.95,1.75));
#1128 = LINE('',#1129,#1130);
#1129 = CARTESIAN_POINT('',(4.,3.95,1.02449));
#1130 = VECTOR('',#1131,1.);
#1131 = DIRECTION('',(0.,0.,1.));
#1132 = ORIENTED_EDGE('',*,*,#1133,.T.);
#1133 = EDGE_CURVE('',#1126,#911,#1134,.T.);
#1134 = LINE('',#1135,#1136);
#1135 = CARTESIAN_POINT('',(4.,3.95,1.75));
#1136 = VECTOR('',#1137,1.);
#1137 = DIRECTION('',(0.,-1.,2.22044604925E-16));
#1138 = ORIENTED_EDGE('',*,*,#910,.T.);
#1139 = PLANE('',#1140);
#1140 = AXIS2_PLACEMENT_3D('',#1141,#1142,#1143);
#1141 = CARTESIAN_POINT('',(4.,2.948808557495,-1.009154255219));
#1142 = DIRECTION('',(1.,0.,0.));
#1143 = DIRECTION('',(0.,0.,1.));
#1144 = ADVANCED_FACE('',(#1145),#1163,.T.);
#1145 = FACE_BOUND('',#1146,.T.);
#1146 = EDGE_LOOP('',(#1147,#1148,#1156,#1162));
#1147 = ORIENTED_EDGE('',*,*,#902,.T.);
#1148 = ORIENTED_EDGE('',*,*,#1149,.T.);
#1149 = EDGE_CURVE('',#895,#1150,#1152,.T.);
#1150 = VERTEX_POINT('',#1151);
#1151 = CARTESIAN_POINT('',(3.5,1.95,-4.));
#1152 = LINE('',#1153,#1154);
#1153 = CARTESIAN_POINT('',(3.5,1.95,1.75));
#1154 = VECTOR('',#1155,1.);
#1155 = DIRECTION('',(0.,0.,-1.));
#1156 = ORIENTED_EDGE('',*,*,#1157,.F.);
#1157 = EDGE_CURVE('',#1061,#1150,#1158,.T.);
#1158 = LINE('',#1159,#1160);
#1159 = CARTESIAN_POINT('',(4.,1.95,-4.));
#1160 = VECTOR('',#1161,1.);
#1161 = DIRECTION('',(-1.,-0.,-0.));
#1162 = ORIENTED_EDGE('',*,*,#1060,.F.);
#1163 = PLANE('',#1164);
#1164 = AXIS2_PLACEMENT_3D('',#1165,#1166,#1167);
#1165 = CARTESIAN_POINT('',(4.,1.95,1.75));
#1166 = DIRECTION('',(0.,-1.,0.));
#1167 = DIRECTION('',(0.,0.,-1.));
#1168 = ADVANCED_FACE('',(#1169),#1244,.F.);
#1169 = FACE_BOUND('',#1170,.F.);
#1170 = EDGE_LOOP('',(#1171,#1172,#1181,#1189,#1197,#1205,#1213,#1221,
    #1229,#1237,#1243));
#1171 = ORIENTED_EDGE('',*,*,#1149,.T.);
#1172 = ORIENTED_EDGE('',*,*,#1173,.T.);
#1173 = EDGE_CURVE('',#1150,#1174,#1176,.T.);
#1174 = VERTEX_POINT('',#1175);
#1175 = CARTESIAN_POINT('',(3.5,3.45,-4.));
#1176 = CIRCLE('',#1177,1.080974926888);
#1177 = AXIS2_PLACEMENT_3D('',#1178,#1179,#1180);
#1178 = CARTESIAN_POINT('',(3.5,2.7,-3.221535618952));
#1179 = DIRECTION('',(1.,0.,0.));
#1180 = DIRECTION('',(0.,1.,0.));
#1181 = ORIENTED_EDGE('',*,*,#1182,.T.);
#1182 = EDGE_CURVE('',#1174,#1183,#1185,.T.);
#1183 = VERTEX_POINT('',#1184);
#1184 = CARTESIAN_POINT('',(3.5,3.95,-2.873496));
#1185 = LINE('',#1186,#1187);
#1186 = CARTESIAN_POINT('',(3.5,3.45,-4.));
#1187 = VECTOR('',#1188,1.);
#1188 = DIRECTION('',(0.,0.405685520569,0.914012723325));
#1189 = ORIENTED_EDGE('',*,*,#1190,.T.);
#1190 = EDGE_CURVE('',#1183,#1191,#1193,.T.);
#1191 = VERTEX_POINT('',#1192);
#1192 = CARTESIAN_POINT('',(3.5,3.45,-2.539823));
#1193 = LINE('',#1194,#1195);
#1194 = CARTESIAN_POINT('',(3.5,3.95,-2.873496));
#1195 = VECTOR('',#1196,1.);
#1196 = DIRECTION('',(0.,-0.831789404405,0.555091331872));
#1197 = ORIENTED_EDGE('',*,*,#1198,.T.);
#1198 = EDGE_CURVE('',#1191,#1199,#1201,.T.);
#1199 = VERTEX_POINT('',#1200);
#1200 = CARTESIAN_POINT('',(3.5,3.45,0.));
#1201 = LINE('',#1202,#1203);
#1202 = CARTESIAN_POINT('',(3.5,3.45,-2.539823));
#1203 = VECTOR('',#1204,1.);
#1204 = DIRECTION('',(0.,0.,1.));
#1205 = ORIENTED_EDGE('',*,*,#1206,.T.);
#1206 = EDGE_CURVE('',#1199,#1207,#1209,.T.);
#1207 = VERTEX_POINT('',#1208);
#1208 = CARTESIAN_POINT('',(3.5,4.35,-1.123473381554E-17));
#1209 = LINE('',#1210,#1211);
#1210 = CARTESIAN_POINT('',(3.5,3.45,0.));
#1211 = VECTOR('',#1212,1.);
#1212 = DIRECTION('',(0.,1.,-1.248303757282E-17));
#1213 = ORIENTED_EDGE('',*,*,#1214,.T.);
#1214 = EDGE_CURVE('',#1207,#1215,#1217,.T.);
#1215 = VERTEX_POINT('',#1216);
#1216 = CARTESIAN_POINT('',(3.5,4.35,1.02449));
#1217 = LINE('',#1218,#1219);
#1218 = CARTESIAN_POINT('',(3.5,4.35,-1.123473381554E-17));
#1219 = VECTOR('',#1220,1.);
#1220 = DIRECTION('',(0.,0.,1.));
#1221 = ORIENTED_EDGE('',*,*,#1222,.T.);
#1222 = EDGE_CURVE('',#1215,#1223,#1225,.T.);
#1223 = VERTEX_POINT('',#1224);
#1224 = CARTESIAN_POINT('',(3.5,3.95,1.02449));
#1225 = LINE('',#1226,#1227);
#1226 = CARTESIAN_POINT('',(3.5,4.35,1.02449));
#1227 = VECTOR('',#1228,1.);
#1228 = DIRECTION('',(0.,-1.,0.));
#1229 = ORIENTED_EDGE('',*,*,#1230,.T.);
#1230 = EDGE_CURVE('',#1223,#1231,#1233,.T.);
#1231 = VERTEX_POINT('',#1232);
#1232 = CARTESIAN_POINT('',(3.5,3.95,1.75));
#1233 = LINE('',#1234,#1235);
#1234 = CARTESIAN_POINT('',(3.5,3.95,1.02449));
#1235 = VECTOR('',#1236,1.);
#1236 = DIRECTION('',(0.,0.,1.));
#1237 = ORIENTED_EDGE('',*,*,#1238,.T.);
#1238 = EDGE_CURVE('',#1231,#887,#1239,.T.);
#1239 = LINE('',#1240,#1241);
#1240 = CARTESIAN_POINT('',(3.5,3.95,1.75));
#1241 = VECTOR('',#1242,1.);
#1242 = DIRECTION('',(0.,-1.,2.22044604925E-16));
#1243 = ORIENTED_EDGE('',*,*,#894,.T.);
#1244 = PLANE('',#1245);
#1245 = AXIS2_PLACEMENT_3D('',#1246,#1247,#1248);
#1246 = CARTESIAN_POINT('',(3.5,2.948808557495,-1.009154255219));
#1247 = DIRECTION('',(1.,0.,0.));
#1248 = DIRECTION('',(0.,0.,1.));
#1249 = ADVANCED_FACE('',(#1250),#1332,.F.);
#1250 = FACE_BOUND('',#1251,.T.);
#1251 = EDGE_LOOP('',(#1252,#1260,#1269,#1277,#1285,#1293,#1301,#1309,
    #1317,#1325,#1331));
#1252 = ORIENTED_EDGE('',*,*,#1253,.T.);
#1253 = EDGE_CURVE('',#871,#1254,#1256,.T.);
#1254 = VERTEX_POINT('',#1255);
#1255 = CARTESIAN_POINT('',(-3.5,1.95,-4.));
#1256 = LINE('',#1257,#1258);
#1257 = CARTESIAN_POINT('',(-3.5,1.95,1.75));
#1258 = VECTOR('',#1259,1.);
#1259 = DIRECTION('',(2.22044604925E-16,-2.465190328816E-32,-1.));
#1260 = ORIENTED_EDGE('',*,*,#1261,.T.);
#1261 = EDGE_CURVE('',#1254,#1262,#1264,.T.);
#1262 = VERTEX_POINT('',#1263);
#1263 = CARTESIAN_POINT('',(-3.5,3.45,-4.));
#1264 = CIRCLE('',#1265,1.080974926888);
#1265 = AXIS2_PLACEMENT_3D('',#1266,#1267,#1268);
#1266 = CARTESIAN_POINT('',(-3.5,2.7,-3.221535618952));
#1267 = DIRECTION('',(1.,-2.22044604925E-16,2.22044604925E-16));
#1268 = DIRECTION('',(2.22044604925E-16,1.,2.465190328816E-32));
#1269 = ORIENTED_EDGE('',*,*,#1270,.T.);
#1270 = EDGE_CURVE('',#1262,#1271,#1273,.T.);
#1271 = VERTEX_POINT('',#1272);
#1272 = CARTESIAN_POINT('',(-3.5,3.95,-2.873496));
#1273 = LINE('',#1274,#1275);
#1274 = CARTESIAN_POINT('',(-3.5,3.45,-4.));
#1275 = VECTOR('',#1276,1.);
#1276 = DIRECTION('',(-1.128713129088E-16,0.405685520569,0.914012723325)
  );
#1277 = ORIENTED_EDGE('',*,*,#1278,.T.);
#1278 = EDGE_CURVE('',#1271,#1279,#1281,.T.);
#1279 = VERTEX_POINT('',#1280);
#1280 = CARTESIAN_POINT('',(-3.5,3.45,-2.539823));
#1281 = LINE('',#1282,#1283);
#1282 = CARTESIAN_POINT('',(-3.5,3.95,-2.873496));
#1283 = VECTOR('',#1284,1.);
#1284 = DIRECTION('',(-3.079493851648E-16,-0.831789404405,0.555091331872
    ));
#1285 = ORIENTED_EDGE('',*,*,#1286,.T.);
#1286 = EDGE_CURVE('',#1279,#1287,#1289,.T.);
#1287 = VERTEX_POINT('',#1288);
#1288 = CARTESIAN_POINT('',(-3.5,3.45,-7.771561172376E-16));
#1289 = LINE('',#1290,#1291);
#1290 = CARTESIAN_POINT('',(-3.5,3.45,-2.539823));
#1291 = VECTOR('',#1292,1.);
#1292 = DIRECTION('',(-2.22044604925E-16,2.465190328816E-32,1.));
#1293 = ORIENTED_EDGE('',*,*,#1294,.T.);
#1294 = EDGE_CURVE('',#1287,#1295,#1297,.T.);
#1295 = VERTEX_POINT('',#1296);
#1296 = CARTESIAN_POINT('',(-3.5,4.35,-7.883908510531E-16));
#1297 = LINE('',#1298,#1299);
#1298 = CARTESIAN_POINT('',(-3.5,3.45,-7.771561172376E-16));
#1299 = VECTOR('',#1300,1.);
#1300 = DIRECTION('',(2.22044604925E-16,1.,-1.248303757282E-17));
#1301 = ORIENTED_EDGE('',*,*,#1302,.T.);
#1302 = EDGE_CURVE('',#1295,#1303,#1305,.T.);
#1303 = VERTEX_POINT('',#1304);
#1304 = CARTESIAN_POINT('',(-3.5,4.35,1.02449));
#1305 = LINE('',#1306,#1307);
#1306 = CARTESIAN_POINT('',(-3.5,4.35,-7.883908510531E-16));
#1307 = VECTOR('',#1308,1.);
#1308 = DIRECTION('',(-2.22044604925E-16,2.465190328816E-32,1.));
#1309 = ORIENTED_EDGE('',*,*,#1310,.T.);
#1310 = EDGE_CURVE('',#1303,#1311,#1313,.T.);
#1311 = VERTEX_POINT('',#1312);
#1312 = CARTESIAN_POINT('',(-3.5,3.95,1.02449));
#1313 = LINE('',#1314,#1315);
#1314 = CARTESIAN_POINT('',(-3.5,4.35,1.02449));
#1315 = VECTOR('',#1316,1.);
#1316 = DIRECTION('',(-2.22044604925E-16,-1.,-2.465190328816E-32));
#1317 = ORIENTED_EDGE('',*,*,#1318,.T.);
#1318 = EDGE_CURVE('',#1311,#1319,#1321,.T.);
#1319 = VERTEX_POINT('',#1320);
#1320 = CARTESIAN_POINT('',(-3.5,3.95,1.75));
#1321 = LINE('',#1322,#1323);
#1322 = CARTESIAN_POINT('',(-3.5,3.95,1.02449));
#1323 = VECTOR('',#1324,1.);
#1324 = DIRECTION('',(-2.22044604925E-16,2.465190328816E-32,1.));
#1325 = ORIENTED_EDGE('',*,*,#1326,.T.);
#1326 = EDGE_CURVE('',#1319,#879,#1327,.T.);
#1327 = LINE('',#1328,#1329);
#1328 = CARTESIAN_POINT('',(-3.5,3.95,1.75));
#1329 = VECTOR('',#1330,1.);
#1330 = DIRECTION('',(-2.22044604925E-16,-1.,2.22044604925E-16));
#1331 = ORIENTED_EDGE('',*,*,#878,.T.);
#1332 = PLANE('',#1333);
#1333 = AXIS2_PLACEMENT_3D('',#1334,#1335,#1336);
#1334 = CARTESIAN_POINT('',(-3.5,2.948808557495,-1.009154255219));
#1335 = DIRECTION('',(-1.,2.22044604925E-16,-2.22044604925E-16));
#1336 = DIRECTION('',(2.22044604925E-16,-2.465190328816E-32,-1.));
#1337 = ADVANCED_FACE('',(#1338),#1356,.T.);
#1338 = FACE_BOUND('',#1339,.F.);
#1339 = EDGE_LOOP('',(#1340,#1341,#1342,#1350));
#1340 = ORIENTED_EDGE('',*,*,#870,.T.);
#1341 = ORIENTED_EDGE('',*,*,#1253,.T.);
#1342 = ORIENTED_EDGE('',*,*,#1343,.F.);
#1343 = EDGE_CURVE('',#1344,#1254,#1346,.T.);
#1344 = VERTEX_POINT('',#1345);
#1345 = CARTESIAN_POINT('',(-4.,1.95,-4.));
#1346 = LINE('',#1347,#1348);
#1347 = CARTESIAN_POINT('',(-4.,1.95,-4.));
#1348 = VECTOR('',#1349,1.);
#1349 = DIRECTION('',(1.,-2.22044604925E-16,2.22044604925E-16));
#1350 = ORIENTED_EDGE('',*,*,#1351,.F.);
#1351 = EDGE_CURVE('',#863,#1344,#1352,.T.);
#1352 = LINE('',#1353,#1354);
#1353 = CARTESIAN_POINT('',(-4.,1.95,1.75));
#1354 = VECTOR('',#1355,1.);
#1355 = DIRECTION('',(2.22044604925E-16,-2.465190328816E-32,-1.));
#1356 = PLANE('',#1357);
#1357 = AXIS2_PLACEMENT_3D('',#1358,#1359,#1360);
#1358 = CARTESIAN_POINT('',(-4.,1.95,1.75));
#1359 = DIRECTION('',(-2.22044604925E-16,-1.,-2.465190328816E-32));
#1360 = DIRECTION('',(-2.22044604925E-16,2.465190328816E-32,1.));
#1361 = ADVANCED_FACE('',(#1362),#1437,.T.);
#1362 = FACE_BOUND('',#1363,.F.);
#1363 = EDGE_LOOP('',(#1364,#1365,#1374,#1382,#1390,#1398,#1406,#1414,
    #1422,#1430,#1436));
#1364 = ORIENTED_EDGE('',*,*,#1351,.T.);
#1365 = ORIENTED_EDGE('',*,*,#1366,.T.);
#1366 = EDGE_CURVE('',#1344,#1367,#1369,.T.);
#1367 = VERTEX_POINT('',#1368);
#1368 = CARTESIAN_POINT('',(-4.,3.45,-4.));
#1369 = CIRCLE('',#1370,1.080974926888);
#1370 = AXIS2_PLACEMENT_3D('',#1371,#1372,#1373);
#1371 = CARTESIAN_POINT('',(-4.,2.7,-3.221535618952));
#1372 = DIRECTION('',(1.,-2.22044604925E-16,2.22044604925E-16));
#1373 = DIRECTION('',(2.22044604925E-16,1.,2.465190328816E-32));
#1374 = ORIENTED_EDGE('',*,*,#1375,.T.);
#1375 = EDGE_CURVE('',#1367,#1376,#1378,.T.);
#1376 = VERTEX_POINT('',#1377);
#1377 = CARTESIAN_POINT('',(-4.,3.95,-2.873496));
#1378 = LINE('',#1379,#1380);
#1379 = CARTESIAN_POINT('',(-4.,3.45,-4.));
#1380 = VECTOR('',#1381,1.);
#1381 = DIRECTION('',(-1.128713129088E-16,0.405685520569,0.914012723325)
  );
#1382 = ORIENTED_EDGE('',*,*,#1383,.T.);
#1383 = EDGE_CURVE('',#1376,#1384,#1386,.T.);
#1384 = VERTEX_POINT('',#1385);
#1385 = CARTESIAN_POINT('',(-4.,3.45,-2.539823));
#1386 = LINE('',#1387,#1388);
#1387 = CARTESIAN_POINT('',(-4.,3.95,-2.873496));
#1388 = VECTOR('',#1389,1.);
#1389 = DIRECTION('',(-3.079493851648E-16,-0.831789404405,0.555091331872
    ));
#1390 = ORIENTED_EDGE('',*,*,#1391,.T.);
#1391 = EDGE_CURVE('',#1384,#1392,#1394,.T.);
#1392 = VERTEX_POINT('',#1393);
#1393 = CARTESIAN_POINT('',(-4.,3.45,-8.881784197001E-16));
#1394 = LINE('',#1395,#1396);
#1395 = CARTESIAN_POINT('',(-4.,3.45,-2.539823));
#1396 = VECTOR('',#1397,1.);
#1397 = DIRECTION('',(-2.22044604925E-16,2.465190328816E-32,1.));
#1398 = ORIENTED_EDGE('',*,*,#1399,.T.);
#1399 = EDGE_CURVE('',#1392,#1400,#1402,.T.);
#1400 = VERTEX_POINT('',#1401);
#1401 = CARTESIAN_POINT('',(-4.,4.35,-8.994131535157E-16));
#1402 = LINE('',#1403,#1404);
#1403 = CARTESIAN_POINT('',(-4.,3.45,-8.881784197001E-16));
#1404 = VECTOR('',#1405,1.);
#1405 = DIRECTION('',(2.22044604925E-16,1.,-1.248303757282E-17));
#1406 = ORIENTED_EDGE('',*,*,#1407,.T.);
#1407 = EDGE_CURVE('',#1400,#1408,#1410,.T.);
#1408 = VERTEX_POINT('',#1409);
#1409 = CARTESIAN_POINT('',(-4.,4.35,1.02449));
#1410 = LINE('',#1411,#1412);
#1411 = CARTESIAN_POINT('',(-4.,4.35,-8.994131535157E-16));
#1412 = VECTOR('',#1413,1.);
#1413 = DIRECTION('',(-2.22044604925E-16,2.465190328816E-32,1.));
#1414 = ORIENTED_EDGE('',*,*,#1415,.T.);
#1415 = EDGE_CURVE('',#1408,#1416,#1418,.T.);
#1416 = VERTEX_POINT('',#1417);
#1417 = CARTESIAN_POINT('',(-4.,3.95,1.02449));
#1418 = LINE('',#1419,#1420);
#1419 = CARTESIAN_POINT('',(-4.,4.35,1.02449));
#1420 = VECTOR('',#1421,1.);
#1421 = DIRECTION('',(-2.22044604925E-16,-1.,-2.465190328816E-32));
#1422 = ORIENTED_EDGE('',*,*,#1423,.T.);
#1423 = EDGE_CURVE('',#1416,#1424,#1426,.T.);
#1424 = VERTEX_POINT('',#1425);
#1425 = CARTESIAN_POINT('',(-4.,3.95,1.75));
#1426 = LINE('',#1427,#1428);
#1427 = CARTESIAN_POINT('',(-4.,3.95,1.02449));
#1428 = VECTOR('',#1429,1.);
#1429 = DIRECTION('',(-2.22044604925E-16,2.465190328816E-32,1.));
#1430 = ORIENTED_EDGE('',*,*,#1431,.T.);
#1431 = EDGE_CURVE('',#1424,#855,#1432,.T.);
#1432 = LINE('',#1433,#1434);
#1433 = CARTESIAN_POINT('',(-4.,3.95,1.75));
#1434 = VECTOR('',#1435,1.);
#1435 = DIRECTION('',(-2.22044604925E-16,-1.,2.22044604925E-16));
#1436 = ORIENTED_EDGE('',*,*,#862,.T.);
#1437 = PLANE('',#1438);
#1438 = AXIS2_PLACEMENT_3D('',#1439,#1440,#1441);
#1439 = CARTESIAN_POINT('',(-4.,2.948808557495,-1.009154255219));
#1440 = DIRECTION('',(-1.,2.22044604925E-16,-2.22044604925E-16));
#1441 = DIRECTION('',(2.22044604925E-16,-2.465190328816E-32,-1.));
#1442 = ADVANCED_FACE('',(#1443),#1468,.T.);
#1443 = FACE_BOUND('',#1444,.T.);
#1444 = EDGE_LOOP('',(#1445,#1446,#1454,#1462));
#1445 = ORIENTED_EDGE('',*,*,#926,.T.);
#1446 = ORIENTED_EDGE('',*,*,#1447,.T.);
#1447 = EDGE_CURVE('',#929,#1448,#1450,.T.);
#1448 = VERTEX_POINT('',#1449);
#1449 = CARTESIAN_POINT('',(-1.,-1.5,-2.5));
#1450 = LINE('',#1451,#1452);
#1451 = CARTESIAN_POINT('',(-1.,-1.5,1.75));
#1452 = VECTOR('',#1453,1.);
#1453 = DIRECTION('',(0.,0.,-1.));
#1454 = ORIENTED_EDGE('',*,*,#1455,.F.);
#1455 = EDGE_CURVE('',#1456,#1448,#1458,.T.);
#1456 = VERTEX_POINT('',#1457);
#1457 = CARTESIAN_POINT('',(1.,-1.5,-2.5));
#1458 = LINE('',#1459,#1460);
#1459 = CARTESIAN_POINT('',(1.,-1.5,-2.5));
#1460 = VECTOR('',#1461,1.);
#1461 = DIRECTION('',(-1.,-0.,-0.));
#1462 = ORIENTED_EDGE('',*,*,#1463,.F.);
#1463 = EDGE_CURVE('',#927,#1456,#1464,.T.);
#1464 = LINE('',#1465,#1466);
#1465 = CARTESIAN_POINT('',(1.,-1.5,1.75));
#1466 = VECTOR('',#1467,1.);
#1467 = DIRECTION('',(0.,0.,-1.));
#1468 = PLANE('',#1469);
#1469 = AXIS2_PLACEMENT_3D('',#1470,#1471,#1472);
#1470 = CARTESIAN_POINT('',(1.,-1.5,1.75));
#1471 = DIRECTION('',(0.,-1.,0.));
#1472 = DIRECTION('',(0.,0.,-1.));
#1473 = ADVANCED_FACE('',(#1474),#1524,.T.);
#1474 = FACE_BOUND('',#1475,.T.);
#1475 = EDGE_LOOP('',(#1476,#1477,#1485,#1493,#1501,#1509,#1517,#1523));
#1476 = ORIENTED_EDGE('',*,*,#1463,.T.);
#1477 = ORIENTED_EDGE('',*,*,#1478,.T.);
#1478 = EDGE_CURVE('',#1456,#1479,#1481,.T.);
#1479 = VERTEX_POINT('',#1480);
#1480 = CARTESIAN_POINT('',(1.,-2.25,-3.25));
#1481 = LINE('',#1482,#1483);
#1482 = CARTESIAN_POINT('',(1.,-1.5,-2.5));
#1483 = VECTOR('',#1484,1.);
#1484 = DIRECTION('',(0.,-0.707106781187,-0.707106781187));
#1485 = ORIENTED_EDGE('',*,*,#1486,.T.);
#1486 = EDGE_CURVE('',#1479,#1487,#1489,.T.);
#1487 = VERTEX_POINT('',#1488);
#1488 = CARTESIAN_POINT('',(1.,-1.5,-4.));
#1489 = LINE('',#1490,#1491);
#1490 = CARTESIAN_POINT('',(1.,-2.25,-3.25));
#1491 = VECTOR('',#1492,1.);
#1492 = DIRECTION('',(0.,0.707106781187,-0.707106781187));
#1493 = ORIENTED_EDGE('',*,*,#1494,.T.);
#1494 = EDGE_CURVE('',#1487,#1495,#1497,.T.);
#1495 = VERTEX_POINT('',#1496);
#1496 = CARTESIAN_POINT('',(1.,-0.5,-4.));
#1497 = LINE('',#1498,#1499);
#1498 = CARTESIAN_POINT('',(1.,-1.5,-4.));
#1499 = VECTOR('',#1500,1.);
#1500 = DIRECTION('',(0.,1.,0.));
#1501 = ORIENTED_EDGE('',*,*,#1502,.T.);
#1502 = EDGE_CURVE('',#1495,#1503,#1505,.T.);
#1503 = VERTEX_POINT('',#1504);
#1504 = CARTESIAN_POINT('',(1.,-1.25,-3.25));
#1505 = LINE('',#1506,#1507);
#1506 = CARTESIAN_POINT('',(1.,-0.5,-4.));
#1507 = VECTOR('',#1508,1.);
#1508 = DIRECTION('',(0.,-0.707106781187,0.707106781187));
#1509 = ORIENTED_EDGE('',*,*,#1510,.T.);
#1510 = EDGE_CURVE('',#1503,#1511,#1513,.T.);
#1511 = VERTEX_POINT('',#1512);
#1512 = CARTESIAN_POINT('',(1.,-0.5,-2.5));
#1513 = LINE('',#1514,#1515);
#1514 = CARTESIAN_POINT('',(1.,-1.25,-3.25));
#1515 = VECTOR('',#1516,1.);
#1516 = DIRECTION('',(0.,0.707106781187,0.707106781187));
#1517 = ORIENTED_EDGE('',*,*,#1518,.T.);
#1518 = EDGE_CURVE('',#1511,#937,#1519,.T.);
#1519 = LINE('',#1520,#1521);
#1520 = CARTESIAN_POINT('',(1.,-0.5,-2.5));
#1521 = VECTOR('',#1522,1.);
#1522 = DIRECTION('',(0.,0.,1.));
#1523 = ORIENTED_EDGE('',*,*,#936,.T.);
#1524 = PLANE('',#1525);
#1525 = AXIS2_PLACEMENT_3D('',#1526,#1527,#1528);
#1526 = CARTESIAN_POINT('',(1.,-1.107917590304,-1.304113872214));
#1527 = DIRECTION('',(1.,0.,0.));
#1528 = DIRECTION('',(0.,0.,1.));
#1529 = ADVANCED_FACE('',(#1530),#1580,.F.);
#1530 = FACE_BOUND('',#1531,.F.);
#1531 = EDGE_LOOP('',(#1532,#1533,#1541,#1549,#1557,#1565,#1573,#1579));
#1532 = ORIENTED_EDGE('',*,*,#1447,.T.);
#1533 = ORIENTED_EDGE('',*,*,#1534,.T.);
#1534 = EDGE_CURVE('',#1448,#1535,#1537,.T.);
#1535 = VERTEX_POINT('',#1536);
#1536 = CARTESIAN_POINT('',(-1.,-2.25,-3.25));
#1537 = LINE('',#1538,#1539);
#1538 = CARTESIAN_POINT('',(-1.,-1.5,-2.5));
#1539 = VECTOR('',#1540,1.);
#1540 = DIRECTION('',(0.,-0.707106781187,-0.707106781187));
#1541 = ORIENTED_EDGE('',*,*,#1542,.T.);
#1542 = EDGE_CURVE('',#1535,#1543,#1545,.T.);
#1543 = VERTEX_POINT('',#1544);
#1544 = CARTESIAN_POINT('',(-1.,-1.5,-4.));
#1545 = LINE('',#1546,#1547);
#1546 = CARTESIAN_POINT('',(-1.,-2.25,-3.25));
#1547 = VECTOR('',#1548,1.);
#1548 = DIRECTION('',(0.,0.707106781187,-0.707106781187));
#1549 = ORIENTED_EDGE('',*,*,#1550,.T.);
#1550 = EDGE_CURVE('',#1543,#1551,#1553,.T.);
#1551 = VERTEX_POINT('',#1552);
#1552 = CARTESIAN_POINT('',(-1.,-0.5,-4.));
#1553 = LINE('',#1554,#1555);
#1554 = CARTESIAN_POINT('',(-1.,-1.5,-4.));
#1555 = VECTOR('',#1556,1.);
#1556 = DIRECTION('',(0.,1.,0.));
#1557 = ORIENTED_EDGE('',*,*,#1558,.T.);
#1558 = EDGE_CURVE('',#1551,#1559,#1561,.T.);
#1559 = VERTEX_POINT('',#1560);
#1560 = CARTESIAN_POINT('',(-1.,-1.25,-3.25));
#1561 = LINE('',#1562,#1563);
#1562 = CARTESIAN_POINT('',(-1.,-0.5,-4.));
#1563 = VECTOR('',#1564,1.);
#1564 = DIRECTION('',(0.,-0.707106781187,0.707106781187));
#1565 = ORIENTED_EDGE('',*,*,#1566,.T.);
#1566 = EDGE_CURVE('',#1559,#1567,#1569,.T.);
#1567 = VERTEX_POINT('',#1568);
#1568 = CARTESIAN_POINT('',(-1.,-0.5,-2.5));
#1569 = LINE('',#1570,#1571);
#1570 = CARTESIAN_POINT('',(-1.,-1.25,-3.25));
#1571 = VECTOR('',#1572,1.);
#1572 = DIRECTION('',(0.,0.707106781187,0.707106781187));
#1573 = ORIENTED_EDGE('',*,*,#1574,.T.);
#1574 = EDGE_CURVE('',#1567,#945,#1575,.T.);
#1575 = LINE('',#1576,#1577);
#1576 = CARTESIAN_POINT('',(-1.,-0.5,-2.5));
#1577 = VECTOR('',#1578,1.);
#1578 = DIRECTION('',(0.,0.,1.));
#1579 = ORIENTED_EDGE('',*,*,#952,.T.);
#1580 = PLANE('',#1581);
#1581 = AXIS2_PLACEMENT_3D('',#1582,#1583,#1584);
#1582 = CARTESIAN_POINT('',(-1.,-1.107917590304,-1.304113872214));
#1583 = DIRECTION('',(1.,0.,0.));
#1584 = DIRECTION('',(0.,0.,1.));
#1585 = ADVANCED_FACE('',(#1586),#1597,.T.);
#1586 = FACE_BOUND('',#1587,.T.);
#1587 = EDGE_LOOP('',(#1588,#1594,#1595,#1596));
#1588 = ORIENTED_EDGE('',*,*,#1589,.T.);
#1589 = EDGE_CURVE('',#1511,#1567,#1590,.T.);
#1590 = LINE('',#1591,#1592);
#1591 = CARTESIAN_POINT('',(1.,-0.5,-2.5));
#1592 = VECTOR('',#1593,1.);
#1593 = DIRECTION('',(-1.,-0.,-0.));
#1594 = ORIENTED_EDGE('',*,*,#1574,.T.);
#1595 = ORIENTED_EDGE('',*,*,#944,.F.);
#1596 = ORIENTED_EDGE('',*,*,#1518,.F.);
#1597 = PLANE('',#1598);
#1598 = AXIS2_PLACEMENT_3D('',#1599,#1600,#1601);
#1599 = CARTESIAN_POINT('',(1.,-0.5,-2.5));
#1600 = DIRECTION('',(0.,1.,0.));
#1601 = DIRECTION('',(0.,0.,1.));
#1602 = ADVANCED_FACE('',(#1603),#1614,.T.);
#1603 = FACE_BOUND('',#1604,.F.);
#1604 = EDGE_LOOP('',(#1605,#1606,#1612,#1613));
#1605 = ORIENTED_EDGE('',*,*,#1431,.F.);
#1606 = ORIENTED_EDGE('',*,*,#1607,.T.);
#1607 = EDGE_CURVE('',#1424,#1319,#1608,.T.);
#1608 = LINE('',#1609,#1610);
#1609 = CARTESIAN_POINT('',(-4.,3.95,1.75));
#1610 = VECTOR('',#1611,1.);
#1611 = DIRECTION('',(1.,-2.22044604925E-16,2.22044604925E-16));
#1612 = ORIENTED_EDGE('',*,*,#1326,.T.);
#1613 = ORIENTED_EDGE('',*,*,#989,.F.);
#1614 = PLANE('',#1615);
#1615 = AXIS2_PLACEMENT_3D('',#1616,#1617,#1618);
#1616 = CARTESIAN_POINT('',(-4.,3.95,1.75));
#1617 = DIRECTION('',(-2.22044604925E-16,2.22044604925E-16,1.));
#1618 = DIRECTION('',(2.22044604925E-16,1.,-2.22044604925E-16));
#1619 = ADVANCED_FACE('',(#1620),#1631,.T.);
#1620 = FACE_BOUND('',#1621,.T.);
#1621 = EDGE_LOOP('',(#1622,#1623,#1629,#1630));
#1622 = ORIENTED_EDGE('',*,*,#1133,.F.);
#1623 = ORIENTED_EDGE('',*,*,#1624,.T.);
#1624 = EDGE_CURVE('',#1126,#1231,#1625,.T.);
#1625 = LINE('',#1626,#1627);
#1626 = CARTESIAN_POINT('',(4.,3.95,1.75));
#1627 = VECTOR('',#1628,1.);
#1628 = DIRECTION('',(-1.,-0.,-0.));
#1629 = ORIENTED_EDGE('',*,*,#1238,.T.);
#1630 = ORIENTED_EDGE('',*,*,#982,.T.);
#1631 = PLANE('',#1632);
#1632 = AXIS2_PLACEMENT_3D('',#1633,#1634,#1635);
#1633 = CARTESIAN_POINT('',(4.,3.95,1.75));
#1634 = DIRECTION('',(0.,2.22044604925E-16,1.));
#1635 = DIRECTION('',(0.,-1.,2.22044604925E-16));
#1636 = ADVANCED_FACE('',(#1637),#1640,.F.);
#1637 = FACE_BOUND('',#1638,.F.);
#1638 = EDGE_LOOP('',(#1639));
#1639 = ORIENTED_EDGE('',*,*,#1045,.F.);
#1640 = PLANE('',#1641);
#1641 = AXIS2_PLACEMENT_3D('',#1642,#1643,#1644);
#1642 = CARTESIAN_POINT('',(-2.471277347963E-16,-5.,8.));
#1643 = DIRECTION('',(0.,1.,-2.471277347963E-16));
#1644 = DIRECTION('',(0.,2.471277347963E-16,1.));
#1645 = ADVANCED_FACE('',(#1646),#1657,.T.);
#1646 = FACE_BOUND('',#1647,.T.);
#1647 = EDGE_LOOP('',(#1648,#1649,#1650,#1656));
#1648 = ORIENTED_EDGE('',*,*,#1157,.T.);
#1649 = ORIENTED_EDGE('',*,*,#1173,.T.);
#1650 = ORIENTED_EDGE('',*,*,#1651,.F.);
#1651 = EDGE_CURVE('',#1069,#1174,#1652,.T.);
#1652 = LINE('',#1653,#1654);
#1653 = CARTESIAN_POINT('',(4.,3.45,-4.));
#1654 = VECTOR('',#1655,1.);
#1655 = DIRECTION('',(-1.,-0.,-0.));
#1656 = ORIENTED_EDGE('',*,*,#1068,.F.);
#1657 = CYLINDRICAL_SURFACE('',#1658,1.080974926888);
#1658 = AXIS2_PLACEMENT_3D('',#1659,#1660,#1661);
#1659 = CARTESIAN_POINT('',(4.,2.7,-3.221535618952));
#1660 = DIRECTION('',(1.,0.,0.));
#1661 = DIRECTION('',(0.,1.,0.));
#1662 = ADVANCED_FACE('',(#1663),#1674,.T.);
#1663 = FACE_BOUND('',#1664,.T.);
#1664 = EDGE_LOOP('',(#1665,#1666,#1667,#1673));
#1665 = ORIENTED_EDGE('',*,*,#1651,.T.);
#1666 = ORIENTED_EDGE('',*,*,#1182,.T.);
#1667 = ORIENTED_EDGE('',*,*,#1668,.F.);
#1668 = EDGE_CURVE('',#1078,#1183,#1669,.T.);
#1669 = LINE('',#1670,#1671);
#1670 = CARTESIAN_POINT('',(4.,3.95,-2.873496));
#1671 = VECTOR('',#1672,1.);
#1672 = DIRECTION('',(-1.,-0.,-0.));
#1673 = ORIENTED_EDGE('',*,*,#1077,.F.);
#1674 = PLANE('',#1675);
#1675 = AXIS2_PLACEMENT_3D('',#1676,#1677,#1678);
#1676 = CARTESIAN_POINT('',(4.,3.45,-4.));
#1677 = DIRECTION('',(0.,0.914012723325,-0.405685520569));
#1678 = DIRECTION('',(0.,0.405685520569,0.914012723325));
#1679 = ADVANCED_FACE('',(#1680),#1691,.T.);
#1680 = FACE_BOUND('',#1681,.T.);
#1681 = EDGE_LOOP('',(#1682,#1683,#1684,#1690));
#1682 = ORIENTED_EDGE('',*,*,#1668,.T.);
#1683 = ORIENTED_EDGE('',*,*,#1190,.T.);
#1684 = ORIENTED_EDGE('',*,*,#1685,.F.);
#1685 = EDGE_CURVE('',#1086,#1191,#1686,.T.);
#1686 = LINE('',#1687,#1688);
#1687 = CARTESIAN_POINT('',(4.,3.45,-2.539823));
#1688 = VECTOR('',#1689,1.);
#1689 = DIRECTION('',(-1.,-0.,-0.));
#1690 = ORIENTED_EDGE('',*,*,#1085,.F.);
#1691 = PLANE('',#1692);
#1692 = AXIS2_PLACEMENT_3D('',#1693,#1694,#1695);
#1693 = CARTESIAN_POINT('',(4.,3.95,-2.873496));
#1694 = DIRECTION('',(0.,0.555091331872,0.831789404405));
#1695 = DIRECTION('',(0.,-0.831789404405,0.555091331872));
#1696 = ADVANCED_FACE('',(#1697),#1708,.T.);
#1697 = FACE_BOUND('',#1698,.T.);
#1698 = EDGE_LOOP('',(#1699,#1700,#1701,#1707));
#1699 = ORIENTED_EDGE('',*,*,#1685,.T.);
#1700 = ORIENTED_EDGE('',*,*,#1198,.T.);
#1701 = ORIENTED_EDGE('',*,*,#1702,.F.);
#1702 = EDGE_CURVE('',#1094,#1199,#1703,.T.);
#1703 = LINE('',#1704,#1705);
#1704 = CARTESIAN_POINT('',(4.,3.45,0.));
#1705 = VECTOR('',#1706,1.);
#1706 = DIRECTION('',(-1.,-0.,-0.));
#1707 = ORIENTED_EDGE('',*,*,#1093,.F.);
#1708 = PLANE('',#1709);
#1709 = AXIS2_PLACEMENT_3D('',#1710,#1711,#1712);
#1710 = CARTESIAN_POINT('',(4.,3.45,-2.539823));
#1711 = DIRECTION('',(0.,1.,0.));
#1712 = DIRECTION('',(0.,0.,1.));
#1713 = ADVANCED_FACE('',(#1714),#1725,.T.);
#1714 = FACE_BOUND('',#1715,.T.);
#1715 = EDGE_LOOP('',(#1716,#1717,#1718,#1724));
#1716 = ORIENTED_EDGE('',*,*,#1702,.T.);
#1717 = ORIENTED_EDGE('',*,*,#1206,.T.);
#1718 = ORIENTED_EDGE('',*,*,#1719,.F.);
#1719 = EDGE_CURVE('',#1102,#1207,#1720,.T.);
#1720 = LINE('',#1721,#1722);
#1721 = CARTESIAN_POINT('',(4.,4.35,-1.123473381554E-17));
#1722 = VECTOR('',#1723,1.);
#1723 = DIRECTION('',(-1.,-0.,-0.));
#1724 = ORIENTED_EDGE('',*,*,#1101,.F.);
#1725 = PLANE('',#1726);
#1726 = AXIS2_PLACEMENT_3D('',#1727,#1728,#1729);
#1727 = CARTESIAN_POINT('',(4.,3.45,0.));
#1728 = DIRECTION('',(0.,-1.248303757282E-17,-1.));
#1729 = DIRECTION('',(0.,1.,-1.248303757282E-17));
#1730 = ADVANCED_FACE('',(#1731),#1742,.T.);
#1731 = FACE_BOUND('',#1732,.T.);
#1732 = EDGE_LOOP('',(#1733,#1734,#1735,#1741));
#1733 = ORIENTED_EDGE('',*,*,#1719,.T.);
#1734 = ORIENTED_EDGE('',*,*,#1214,.T.);
#1735 = ORIENTED_EDGE('',*,*,#1736,.F.);
#1736 = EDGE_CURVE('',#1110,#1215,#1737,.T.);
#1737 = LINE('',#1738,#1739);
#1738 = CARTESIAN_POINT('',(4.,4.35,1.02449));
#1739 = VECTOR('',#1740,1.);
#1740 = DIRECTION('',(-1.,-0.,-0.));
#1741 = ORIENTED_EDGE('',*,*,#1109,.F.);
#1742 = PLANE('',#1743);
#1743 = AXIS2_PLACEMENT_3D('',#1744,#1745,#1746);
#1744 = CARTESIAN_POINT('',(4.,4.35,-1.123473381554E-17));
#1745 = DIRECTION('',(0.,1.,0.));
#1746 = DIRECTION('',(0.,0.,1.));
#1747 = ADVANCED_FACE('',(#1748),#1759,.T.);
#1748 = FACE_BOUND('',#1749,.T.);
#1749 = EDGE_LOOP('',(#1750,#1751,#1752,#1758));
#1750 = ORIENTED_EDGE('',*,*,#1736,.T.);
#1751 = ORIENTED_EDGE('',*,*,#1222,.T.);
#1752 = ORIENTED_EDGE('',*,*,#1753,.F.);
#1753 = EDGE_CURVE('',#1118,#1223,#1754,.T.);
#1754 = LINE('',#1755,#1756);
#1755 = CARTESIAN_POINT('',(4.,3.95,1.02449));
#1756 = VECTOR('',#1757,1.);
#1757 = DIRECTION('',(-1.,-0.,-0.));
#1758 = ORIENTED_EDGE('',*,*,#1117,.F.);
#1759 = PLANE('',#1760);
#1760 = AXIS2_PLACEMENT_3D('',#1761,#1762,#1763);
#1761 = CARTESIAN_POINT('',(4.,4.35,1.02449));
#1762 = DIRECTION('',(0.,0.,1.));
#1763 = DIRECTION('',(0.,-1.,0.));
#1764 = ADVANCED_FACE('',(#1765),#1771,.T.);
#1765 = FACE_BOUND('',#1766,.T.);
#1766 = EDGE_LOOP('',(#1767,#1768,#1769,#1770));
#1767 = ORIENTED_EDGE('',*,*,#1753,.T.);
#1768 = ORIENTED_EDGE('',*,*,#1230,.T.);
#1769 = ORIENTED_EDGE('',*,*,#1624,.F.);
#1770 = ORIENTED_EDGE('',*,*,#1125,.F.);
#1771 = PLANE('',#1772);
#1772 = AXIS2_PLACEMENT_3D('',#1773,#1774,#1775);
#1773 = CARTESIAN_POINT('',(4.,3.95,1.02449));
#1774 = DIRECTION('',(0.,1.,0.));
#1775 = DIRECTION('',(0.,0.,1.));
#1776 = ADVANCED_FACE('',(#1777),#1788,.T.);
#1777 = FACE_BOUND('',#1778,.F.);
#1778 = EDGE_LOOP('',(#1779,#1780,#1781,#1787));
#1779 = ORIENTED_EDGE('',*,*,#1343,.T.);
#1780 = ORIENTED_EDGE('',*,*,#1261,.T.);
#1781 = ORIENTED_EDGE('',*,*,#1782,.F.);
#1782 = EDGE_CURVE('',#1367,#1262,#1783,.T.);
#1783 = LINE('',#1784,#1785);
#1784 = CARTESIAN_POINT('',(-4.,3.45,-4.));
#1785 = VECTOR('',#1786,1.);
#1786 = DIRECTION('',(1.,-2.22044604925E-16,2.22044604925E-16));
#1787 = ORIENTED_EDGE('',*,*,#1366,.F.);
#1788 = CYLINDRICAL_SURFACE('',#1789,1.080974926888);
#1789 = AXIS2_PLACEMENT_3D('',#1790,#1791,#1792);
#1790 = CARTESIAN_POINT('',(-4.,2.7,-3.221535618952));
#1791 = DIRECTION('',(-1.,2.22044604925E-16,-2.22044604925E-16));
#1792 = DIRECTION('',(2.22044604925E-16,1.,2.465190328816E-32));
#1793 = ADVANCED_FACE('',(#1794),#1805,.T.);
#1794 = FACE_BOUND('',#1795,.F.);
#1795 = EDGE_LOOP('',(#1796,#1797,#1798,#1804));
#1796 = ORIENTED_EDGE('',*,*,#1782,.T.);
#1797 = ORIENTED_EDGE('',*,*,#1270,.T.);
#1798 = ORIENTED_EDGE('',*,*,#1799,.F.);
#1799 = EDGE_CURVE('',#1376,#1271,#1800,.T.);
#1800 = LINE('',#1801,#1802);
#1801 = CARTESIAN_POINT('',(-4.,3.95,-2.873496));
#1802 = VECTOR('',#1803,1.);
#1803 = DIRECTION('',(1.,-2.22044604925E-16,2.22044604925E-16));
#1804 = ORIENTED_EDGE('',*,*,#1375,.F.);
#1805 = PLANE('',#1806);
#1806 = AXIS2_PLACEMENT_3D('',#1807,#1808,#1809);
#1807 = CARTESIAN_POINT('',(-4.,3.45,-4.));
#1808 = DIRECTION('',(2.930318751857E-16,0.914012723325,-0.405685520569)
  );
#1809 = DIRECTION('',(1.128713129088E-16,-0.405685520569,-0.914012723325
    ));
#1810 = ADVANCED_FACE('',(#1811),#1822,.T.);
#1811 = FACE_BOUND('',#1812,.F.);
#1812 = EDGE_LOOP('',(#1813,#1814,#1815,#1821));
#1813 = ORIENTED_EDGE('',*,*,#1799,.T.);
#1814 = ORIENTED_EDGE('',*,*,#1278,.T.);
#1815 = ORIENTED_EDGE('',*,*,#1816,.F.);
#1816 = EDGE_CURVE('',#1384,#1279,#1817,.T.);
#1817 = LINE('',#1818,#1819);
#1818 = CARTESIAN_POINT('',(-4.,3.45,-2.539823));
#1819 = VECTOR('',#1820,1.);
#1820 = DIRECTION('',(1.,-2.22044604925E-16,2.22044604925E-16));
#1821 = ORIENTED_EDGE('',*,*,#1383,.F.);
#1822 = PLANE('',#1823);
#1823 = AXIS2_PLACEMENT_3D('',#1824,#1825,#1826);
#1824 = CARTESIAN_POINT('',(-4.,3.95,-2.873496));
#1825 = DIRECTION('',(-6.14393141991E-17,0.555091331872,0.831789404405)
  );
#1826 = DIRECTION('',(3.079493851648E-16,0.831789404405,-0.555091331872)
  );
#1827 = ADVANCED_FACE('',(#1828),#1839,.T.);
#1828 = FACE_BOUND('',#1829,.F.);
#1829 = EDGE_LOOP('',(#1830,#1831,#1832,#1838));
#1830 = ORIENTED_EDGE('',*,*,#1816,.T.);
#1831 = ORIENTED_EDGE('',*,*,#1286,.T.);
#1832 = ORIENTED_EDGE('',*,*,#1833,.F.);
#1833 = EDGE_CURVE('',#1392,#1287,#1834,.T.);
#1834 = LINE('',#1835,#1836);
#1835 = CARTESIAN_POINT('',(-4.,3.45,-8.881784197001E-16));
#1836 = VECTOR('',#1837,1.);
#1837 = DIRECTION('',(1.,-2.22044604925E-16,2.22044604925E-16));
#1838 = ORIENTED_EDGE('',*,*,#1391,.F.);
#1839 = PLANE('',#1840);
#1840 = AXIS2_PLACEMENT_3D('',#1841,#1842,#1843);
#1841 = CARTESIAN_POINT('',(-4.,3.45,-2.539823));
#1842 = DIRECTION('',(2.22044604925E-16,1.,2.465190328816E-32));
#1843 = DIRECTION('',(2.22044604925E-16,-2.465190328816E-32,-1.));
#1844 = ADVANCED_FACE('',(#1845),#1856,.T.);
#1845 = FACE_BOUND('',#1846,.F.);
#1846 = EDGE_LOOP('',(#1847,#1848,#1849,#1855));
#1847 = ORIENTED_EDGE('',*,*,#1833,.T.);
#1848 = ORIENTED_EDGE('',*,*,#1294,.T.);
#1849 = ORIENTED_EDGE('',*,*,#1850,.F.);
#1850 = EDGE_CURVE('',#1400,#1295,#1851,.T.);
#1851 = LINE('',#1852,#1853);
#1852 = CARTESIAN_POINT('',(-4.,4.35,-8.994131535157E-16));
#1853 = VECTOR('',#1854,1.);
#1854 = DIRECTION('',(1.,-2.22044604925E-16,2.22044604925E-16));
#1855 = ORIENTED_EDGE('',*,*,#1399,.F.);
#1856 = PLANE('',#1857);
#1857 = AXIS2_PLACEMENT_3D('',#1858,#1859,#1860);
#1858 = CARTESIAN_POINT('',(-4.,3.45,-8.881784197001E-16));
#1859 = DIRECTION('',(2.22044604925E-16,-1.248303757282E-17,-1.));
#1860 = DIRECTION('',(-2.22044604925E-16,-1.,1.248303757282E-17));
#1861 = ADVANCED_FACE('',(#1862),#1873,.T.);
#1862 = FACE_BOUND('',#1863,.F.);
#1863 = EDGE_LOOP('',(#1864,#1865,#1866,#1872));
#1864 = ORIENTED_EDGE('',*,*,#1850,.T.);
#1865 = ORIENTED_EDGE('',*,*,#1302,.T.);
#1866 = ORIENTED_EDGE('',*,*,#1867,.F.);
#1867 = EDGE_CURVE('',#1408,#1303,#1868,.T.);
#1868 = LINE('',#1869,#1870);
#1869 = CARTESIAN_POINT('',(-4.,4.35,1.02449));
#1870 = VECTOR('',#1871,1.);
#1871 = DIRECTION('',(1.,-2.22044604925E-16,2.22044604925E-16));
#1872 = ORIENTED_EDGE('',*,*,#1407,.F.);
#1873 = PLANE('',#1874);
#1874 = AXIS2_PLACEMENT_3D('',#1875,#1876,#1877);
#1875 = CARTESIAN_POINT('',(-4.,4.35,-8.994131535157E-16));
#1876 = DIRECTION('',(2.22044604925E-16,1.,2.465190328816E-32));
#1877 = DIRECTION('',(2.22044604925E-16,-2.465190328816E-32,-1.));
#1878 = ADVANCED_FACE('',(#1879),#1890,.T.);
#1879 = FACE_BOUND('',#1880,.F.);
#1880 = EDGE_LOOP('',(#1881,#1882,#1883,#1889));
#1881 = ORIENTED_EDGE('',*,*,#1867,.T.);
#1882 = ORIENTED_EDGE('',*,*,#1310,.T.);
#1883 = ORIENTED_EDGE('',*,*,#1884,.F.);
#1884 = EDGE_CURVE('',#1416,#1311,#1885,.T.);
#1885 = LINE('',#1886,#1887);
#1886 = CARTESIAN_POINT('',(-4.,3.95,1.02449));
#1887 = VECTOR('',#1888,1.);
#1888 = DIRECTION('',(1.,-2.22044604925E-16,2.22044604925E-16));
#1889 = ORIENTED_EDGE('',*,*,#1415,.F.);
#1890 = PLANE('',#1891);
#1891 = AXIS2_PLACEMENT_3D('',#1892,#1893,#1894);
#1892 = CARTESIAN_POINT('',(-4.,4.35,1.02449));
#1893 = DIRECTION('',(-2.22044604925E-16,2.465190328816E-32,1.));
#1894 = DIRECTION('',(2.22044604925E-16,1.,2.465190328816E-32));
#1895 = ADVANCED_FACE('',(#1896),#1902,.T.);
#1896 = FACE_BOUND('',#1897,.F.);
#1897 = EDGE_LOOP('',(#1898,#1899,#1900,#1901));
#1898 = ORIENTED_EDGE('',*,*,#1884,.T.);
#1899 = ORIENTED_EDGE('',*,*,#1318,.T.);
#1900 = ORIENTED_EDGE('',*,*,#1607,.F.);
#1901 = ORIENTED_EDGE('',*,*,#1423,.F.);
#1902 = PLANE('',#1903);
#1903 = AXIS2_PLACEMENT_3D('',#1904,#1905,#1906);
#1904 = CARTESIAN_POINT('',(-4.,3.95,1.02449));
#1905 = DIRECTION('',(2.22044604925E-16,1.,2.465190328816E-32));
#1906 = DIRECTION('',(2.22044604925E-16,-2.465190328816E-32,-1.));
#1907 = ADVANCED_FACE('',(#1908),#1919,.T.);
#1908 = FACE_BOUND('',#1909,.T.);
#1909 = EDGE_LOOP('',(#1910,#1911,#1912,#1918));
#1910 = ORIENTED_EDGE('',*,*,#1455,.T.);
#1911 = ORIENTED_EDGE('',*,*,#1534,.T.);
#1912 = ORIENTED_EDGE('',*,*,#1913,.F.);
#1913 = EDGE_CURVE('',#1479,#1535,#1914,.T.);
#1914 = LINE('',#1915,#1916);
#1915 = CARTESIAN_POINT('',(1.,-2.25,-3.25));
#1916 = VECTOR('',#1917,1.);
#1917 = DIRECTION('',(-1.,-0.,-0.));
#1918 = ORIENTED_EDGE('',*,*,#1478,.F.);
#1919 = PLANE('',#1920);
#1920 = AXIS2_PLACEMENT_3D('',#1921,#1922,#1923);
#1921 = CARTESIAN_POINT('',(1.,-1.5,-2.5));
#1922 = DIRECTION('',(0.,-0.707106781187,0.707106781187));
#1923 = DIRECTION('',(0.,-0.707106781187,-0.707106781187));
#1924 = ADVANCED_FACE('',(#1925),#1936,.T.);
#1925 = FACE_BOUND('',#1926,.T.);
#1926 = EDGE_LOOP('',(#1927,#1928,#1929,#1935));
#1927 = ORIENTED_EDGE('',*,*,#1913,.T.);
#1928 = ORIENTED_EDGE('',*,*,#1542,.T.);
#1929 = ORIENTED_EDGE('',*,*,#1930,.F.);
#1930 = EDGE_CURVE('',#1487,#1543,#1931,.T.);
#1931 = LINE('',#1932,#1933);
#1932 = CARTESIAN_POINT('',(1.,-1.5,-4.));
#1933 = VECTOR('',#1934,1.);
#1934 = DIRECTION('',(-1.,-0.,-0.));
#1935 = ORIENTED_EDGE('',*,*,#1486,.F.);
#1936 = PLANE('',#1937);
#1937 = AXIS2_PLACEMENT_3D('',#1938,#1939,#1940);
#1938 = CARTESIAN_POINT('',(1.,-2.25,-3.25));
#1939 = DIRECTION('',(0.,-0.707106781187,-0.707106781187));
#1940 = DIRECTION('',(0.,0.707106781187,-0.707106781187));
#1941 = ADVANCED_FACE('',(#1942),#1953,.T.);
#1942 = FACE_BOUND('',#1943,.T.);
#1943 = EDGE_LOOP('',(#1944,#1945,#1946,#1952));
#1944 = ORIENTED_EDGE('',*,*,#1930,.T.);
#1945 = ORIENTED_EDGE('',*,*,#1550,.T.);
#1946 = ORIENTED_EDGE('',*,*,#1947,.F.);
#1947 = EDGE_CURVE('',#1495,#1551,#1948,.T.);
#1948 = LINE('',#1949,#1950);
#1949 = CARTESIAN_POINT('',(1.,-0.5,-4.));
#1950 = VECTOR('',#1951,1.);
#1951 = DIRECTION('',(-1.,-0.,-0.));
#1952 = ORIENTED_EDGE('',*,*,#1494,.F.);
#1953 = PLANE('',#1954);
#1954 = AXIS2_PLACEMENT_3D('',#1955,#1956,#1957);
#1955 = CARTESIAN_POINT('',(1.,-1.5,-4.));
#1956 = DIRECTION('',(0.,0.,-1.));
#1957 = DIRECTION('',(0.,1.,0.));
#1958 = ADVANCED_FACE('',(#1959),#1970,.T.);
#1959 = FACE_BOUND('',#1960,.T.);
#1960 = EDGE_LOOP('',(#1961,#1962,#1963,#1969));
#1961 = ORIENTED_EDGE('',*,*,#1947,.T.);
#1962 = ORIENTED_EDGE('',*,*,#1558,.T.);
#1963 = ORIENTED_EDGE('',*,*,#1964,.F.);
#1964 = EDGE_CURVE('',#1503,#1559,#1965,.T.);
#1965 = LINE('',#1966,#1967);
#1966 = CARTESIAN_POINT('',(1.,-1.25,-3.25));
#1967 = VECTOR('',#1968,1.);
#1968 = DIRECTION('',(-1.,-0.,-0.));
#1969 = ORIENTED_EDGE('',*,*,#1502,.F.);
#1970 = PLANE('',#1971);
#1971 = AXIS2_PLACEMENT_3D('',#1972,#1973,#1974);
#1972 = CARTESIAN_POINT('',(1.,-0.5,-4.));
#1973 = DIRECTION('',(0.,0.707106781187,0.707106781187));
#1974 = DIRECTION('',(0.,-0.707106781187,0.707106781187));
#1975 = ADVANCED_FACE('',(#1976),#1982,.T.);
#1976 = FACE_BOUND('',#1977,.T.);
#1977 = EDGE_LOOP('',(#1978,#1979,#1980,#1981));
#1978 = ORIENTED_EDGE('',*,*,#1964,.T.);
#1979 = ORIENTED_EDGE('',*,*,#1566,.T.);
#1980 = ORIENTED_EDGE('',*,*,#1589,.F.);
#1981 = ORIENTED_EDGE('',*,*,#1510,.F.);
#1982 = PLANE('',#1983);
#1983 = AXIS2_PLACEMENT_3D('',#1984,#1985,#1986);
#1984 = CARTESIAN_POINT('',(1.,-1.25,-3.25));
#1985 = DIRECTION('',(0.,0.707106781187,-0.707106781187));
#1986 = DIRECTION('',(0.,0.707106781187,0.707106781187));
#1987 = ( GEOMETRIC_REPRESENTATION_CONTEXT(3) 
GLOBAL_UNCERTAINTY_ASSIGNED_CONTEXT((#1991)) 
GLOBAL_UNIT_ASSIGNED_CONTEXT((#1988,#1989,#1990)) REPRESENTATION_CONTEXT
('Context #1','3D Context with UNIT and UNCERTAINTY') );
#1988 = ( LENGTH_UNIT() NAMED_UNIT(*) SI_UNIT(.MILLI.,.METRE.) );
#1989 = ( NAMED_UNIT(*) PLANE_ANGLE_UNIT() SI_UNIT($,.RADIAN.) );
#1990 = ( NAMED_UNIT(*) SI_UNIT($,.STERADIAN.) SOLID_ANGLE_UNIT() );
#1991 = UNCERTAINTY_MEASURE_WITH_UNIT(LENGTH_MEASURE(5.E-07),#1988,
  'distance_accuracy_value','confusion accuracy');
#1992 = CONTEXT_DEPENDENT_SHAPE_REPRESENTATION(#1993,#1995);
#1993 = ( REPRESENTATION_RELATIONSHIP('','',#589,#10) 
REPRESENTATION_RELATIONSHIP_WITH_TRANSFORMATION(#1994) 
SHAPE_REPRESENTATION_RELATIONSHIP() );
#1994 = ITEM_DEFINED_TRANSFORMATION('','',#11,#19);
#1995 = PRODUCT_DEFINITION_SHAPE('Placement','Placement of an item',
  #1996);
#1996 = NEXT_ASSEMBLY_USAGE_OCCURRENCE('8','Contacts','',#5,#584,$);
#1997 = PRODUCT_RELATED_PRODUCT_CATEGORY('part',$,(#586));
#1998 = MECHANICAL_DESIGN_GEOMETRIC_PRESENTATION_REPRESENTATION('',(
    #1999),#571);
#1999 = STYLED_ITEM('color',(#2000),#37);
#2000 = PRESENTATION_STYLE_ASSIGNMENT((#2001,#2007));
#2001 = SURFACE_STYLE_USAGE(.BOTH.,#2002);
#2002 = SURFACE_SIDE_STYLE('',(#2003));
#2003 = SURFACE_STYLE_FILL_AREA(#2004);
#2004 = FILL_AREA_STYLE('',(#2005));
#2005 = FILL_AREA_STYLE_COLOUR('',#2006);
#2006 = DRAUGHTING_PRE_DEFINED_COLOUR('white');
#2007 = CURVE_STYLE('',#2008,POSITIVE_LENGTH_MEASURE(0.1),#2009);
#2008 = DRAUGHTING_PRE_DEFINED_CURVE_FONT('continuous');
#2009 = COLOUR_RGB('',9.803921802644E-02,9.803921802644E-02,
  9.803921802644E-02);
#2010 = MECHANICAL_DESIGN_GEOMETRIC_PRESENTATION_REPRESENTATION('',(
    #2011),#1987);
#2011 = STYLED_ITEM('color',(#2012),#590);
#2012 = PRESENTATION_STYLE_ASSIGNMENT((#2013,#2019));
#2013 = SURFACE_STYLE_USAGE(.BOTH.,#2014);
#2014 = SURFACE_SIDE_STYLE('',(#2015));
#2015 = SURFACE_STYLE_FILL_AREA(#2016);
#2016 = FILL_AREA_STYLE('',(#2017));
#2017 = FILL_AREA_STYLE_COLOUR('',#2018);
#2018 = COLOUR_RGB('',0.572549045538,0.607843164819,0.643137266454);
#2019 = CURVE_STYLE('',#2020,POSITIVE_LENGTH_MEASURE(0.1),#2009);
#2020 = DRAUGHTING_PRE_DEFINED_CURVE_FONT('continuous');
ENDSEC;
END-ISO-10303-21;
